<svg width="16" height="16" viewBox="0 0 16 16" fill="none" xmlns="http://www.w3.org/2000/svg">
<path d="M15.3125 8C15.3125 3.9616 12.0384 0.6875 8 0.6875C3.9616 0.6875 0.6875 3.9616 0.6875 8C0.6875 12.0384 3.9616 15.3125 8 15.3125C12.0384 15.3125 15.3125 12.0384 15.3125 8ZM7.83652 11.2119C7.78407 11.1598 7.74238 11.098 7.71383 11.0299C7.68528 10.9617 7.67044 10.8886 7.67014 10.8147C7.66985 10.7409 7.68411 10.6676 7.71212 10.5993C7.74012 10.5309 7.78132 10.4687 7.83336 10.4163L9.67273 8.5625H4.97656C4.82738 8.5625 4.6843 8.50324 4.57881 8.39775C4.47333 8.29226 4.41406 8.14918 4.41406 8C4.41406 7.85082 4.47333 7.70774 4.57881 7.60225C4.6843 7.49676 4.82738 7.4375 4.97656 7.4375H9.67273L7.83336 5.58371C7.78133 5.53122 7.74015 5.46899 7.71216 5.40058C7.68418 5.33217 7.66995 5.25892 7.67027 5.18501C7.6706 5.1111 7.68548 5.03798 7.71407 4.96982C7.74265 4.90167 7.78438 4.8398 7.83687 4.78777C7.88937 4.73574 7.9516 4.69456 8.02 4.66658C8.08841 4.6386 8.16166 4.62436 8.23557 4.62469C8.38484 4.62535 8.52773 4.68527 8.63281 4.79129L11.4239 7.60379C11.5284 7.70915 11.5871 7.85157 11.5871 8C11.5871 8.14843 11.5284 8.29085 11.4239 8.39621L8.63281 11.2087C8.58077 11.2613 8.51888 11.3031 8.45067 11.3317C8.38247 11.3603 8.30929 11.3752 8.23532 11.3754C8.16136 11.3757 8.08807 11.3614 8.01963 11.3334C7.9512 11.3053 7.88898 11.264 7.83652 11.2119Z" fill="#2962FF"/>
</svg>
