<svg width="16" height="16" viewBox="0 0 16 16" fill="none" xmlns="http://www.w3.org/2000/svg">
<path d="M10.4999 8C9.8574 8 9.23615 7.71313 8.7499 7.1925C8.27708 6.68469 7.98833 6.0075 7.9374 5.28625C7.88302 4.51688 8.11771 3.80938 8.59802 3.29375C9.07833 2.77813 9.7499 2.5 10.4999 2.5C11.2446 2.5 11.918 2.78312 12.3968 3.2975C12.8802 3.81687 13.1155 4.52312 13.0611 5.28594C13.009 6.00812 12.7205 6.685 12.2486 7.19219C11.7636 7.71312 11.1427 8 10.4999 8Z" fill="#768FFF"/>
<path d="M14.6197 13.5H6.3806C6.24814 13.5007 6.11727 13.471 5.99809 13.4132C5.8789 13.3554 5.77456 13.271 5.6931 13.1666C5.6067 13.0533 5.54703 12.922 5.51856 12.7824C5.4901 12.6429 5.49357 12.4987 5.52873 12.3606C5.79185 11.3041 6.44373 10.4278 7.41373 9.82687C8.27466 9.29375 9.3706 9 10.5 9C11.6515 9 12.7187 9.28125 13.5847 9.81406C14.5569 10.4119 15.2097 11.2931 15.4715 12.3625C15.5063 12.5006 15.5094 12.6448 15.4806 12.7843C15.4518 12.9238 15.3919 13.055 15.3053 13.1681C15.2239 13.2721 15.1198 13.3561 15.001 13.4136C14.8821 13.4711 14.7517 13.5007 14.6197 13.5Z" fill="#768FFF"/>
<path d="M4.59395 8.125C3.49426 8.125 2.52739 7.1025 2.4377 5.84594C2.39332 5.20219 2.59395 4.60687 3.0002 4.17031C3.40207 3.73812 3.96895 3.5 4.59395 3.5C5.21895 3.5 5.78145 3.73938 6.18551 4.17406C6.59489 4.61406 6.79489 5.20812 6.74801 5.84656C6.65832 7.10281 5.69176 8.125 4.59395 8.125Z" fill="#768FFF"/>
<path d="M6.64559 9.10821C6.0959 8.83945 5.38246 8.70508 4.59403 8.70508C3.6734 8.70508 2.77934 8.94508 2.07621 9.38071C1.27903 9.8754 0.742777 10.5957 0.526214 11.4654C0.494522 11.5905 0.491525 11.7211 0.517446 11.8475C0.543367 11.974 0.597537 12.0929 0.675902 12.1954C0.750261 12.2909 0.845522 12.368 0.95436 12.4209C1.0632 12.4737 1.18271 12.501 1.30371 12.5004H4.77246C4.83101 12.5004 4.8877 12.4798 4.93264 12.4423C4.97759 12.4048 5.00794 12.3527 5.0184 12.2951C5.02184 12.2754 5.02621 12.2557 5.03121 12.2363C5.29621 11.172 5.91715 10.2726 6.83465 9.61696C6.8684 9.59263 6.89554 9.56027 6.91362 9.52281C6.9317 9.48534 6.94014 9.44396 6.93819 9.4024C6.93623 9.36085 6.92394 9.32044 6.90242 9.28484C6.88091 9.24924 6.85084 9.21957 6.81496 9.19852C6.7659 9.16977 6.70965 9.13946 6.64559 9.10821Z" fill="#768FFF"/>
</svg>
