<svg width="112" height="74" viewBox="0 0 112 74" fill="none" xmlns="http://www.w3.org/2000/svg">
<path fill-rule="evenodd" clip-rule="evenodd" d="M28 0C12.536 0 0 12.536 0 28V66.7693C0 70.3379 2.89293 73.2308 6.46154 73.2308H56V28C56 12.536 43.464 0 28 0ZM15.0769 17.2305C13.8874 17.2305 12.9231 18.1949 12.9231 19.3844V27.9998C12.9231 29.1893 13.8874 30.1536 15.0769 30.1536H40.9231C42.1126 30.1536 43.0769 29.1893 43.0769 27.9998V19.3844C43.0769 18.1949 42.1126 17.2305 40.9231 17.2305H15.0769Z" fill="#768FFF"/>
<path fill-rule="evenodd" clip-rule="evenodd" d="M112 73.2308L60.3077 73.2308V23.6923C60.3077 13.7167 55.091 4.95952 47.2368 0H84C99.464 0 112 12.536 112 28V73.2308ZM75.3846 25.8463H86.1539V36.6154C86.1539 37.8049 87.1182 38.7692 88.3077 38.7692H96.9231C98.1126 38.7692 99.0769 37.8049 99.0769 36.6154V23.7012L99.077 23.6925V19.3848C99.077 19.2976 99.0718 19.2117 99.0617 19.1272C98.9345 18.059 98.0255 17.2308 96.9231 17.2308H88.3077L88.2823 17.2309H75.3846C74.1951 17.2309 73.2308 18.1952 73.2308 19.3848V23.6925C73.2308 24.882 74.1951 25.8463 75.3846 25.8463Z" fill="#768FFF"/>
</svg>
