<svg width="18" height="18" viewBox="0 0 18 18" fill="none" xmlns="http://www.w3.org/2000/svg">
<path d="M17.2227 5.76219C17.2942 5.57021 17.362 5.31047 17.3808 5.00932C17.4072 4.47855 17.2754 3.73322 16.5263 3.05564C16.5752 2.70932 16.5752 2.15973 16.2703 1.61391C15.8676 0.891156 15.0808 0.401794 13.9289 0.157113C13.1572 -0.00851689 12.1446 -0.0423958 10.9175 0.0517122C8.44431 0.00277608 6.03515 0.307686 5.89963 0.326508L5.01502 0.431909C4.75905 0.251221 4.44661 0.14582 4.11158 0.14582H1.81535C0.949553 0.14582 0.24939 0.849748 0.24939 1.71178V7.8288C0.24939 8.69459 0.953317 9.39475 1.81535 9.39475H4.11158C4.38261 9.39475 4.63482 9.327 4.85692 9.20654C5.01502 9.55286 5.24841 9.94811 5.59472 10.3132C5.61355 10.3321 5.63237 10.3509 5.65495 10.3659C6.83695 11.2732 8.22975 14.5406 8.72287 15.8732C8.67394 16.2872 8.625 17.1831 9.03908 17.6687C9.22353 17.8833 9.4795 18 9.76559 18C10.0554 18 11.0568 17.9322 11.6816 17.0702C12.2726 16.2496 12.3065 15.0224 11.7795 13.4188C11.3353 12.0712 11.2939 11.4727 11.309 11.2317C11.5122 11.2769 11.7117 11.3183 11.9037 11.3522H11.9075C11.9414 11.3597 12.7695 11.5442 13.7595 11.5894C15.1674 11.6571 16.1875 11.4124 16.7823 10.8666C17.6029 10.1175 17.505 9.16137 17.2604 8.55155C17.4712 8.27675 17.7271 7.8288 17.7497 7.25662C17.7648 6.73714 17.5916 6.23649 17.2227 5.76219ZM4.11158 8.38215H1.81535C1.51044 8.38215 1.26576 8.13371 1.26576 7.83256V1.71554C1.26576 1.41063 1.5142 1.16595 1.81535 1.16595H4.11158C4.41649 1.16595 4.66117 1.4144 4.66117 1.71554V7.83256C4.66117 8.13747 4.41649 8.38215 4.11158 8.38215ZM16.2214 8.74729C16.2214 8.75106 16.3532 8.95809 16.3983 9.24042C16.4548 9.5905 16.3569 9.88035 16.0934 10.1213C15.3744 10.7763 13.3041 10.6257 12.1484 10.3697C12.1333 10.3659 12.1183 10.3622 12.0995 10.3584C11.8924 10.3208 11.6703 10.2756 11.4445 10.2267C11.2036 10.1401 10.8723 10.1514 10.6239 10.3735C10.1232 10.8177 10.1797 11.8265 10.8083 13.7425C11.2224 14.9998 11.2374 15.9484 10.8535 16.4792C10.5297 16.9272 9.99521 16.9836 9.79194 16.9874C9.7016 16.8368 9.67525 16.3211 9.74301 15.8957C9.7543 15.8129 9.74677 15.7263 9.72042 15.6435C9.6489 15.4515 7.99636 10.9268 6.30618 9.58673C5.86576 9.10867 5.67378 8.54778 5.60602 8.29557C5.65119 8.14876 5.67754 7.99066 5.67754 7.8288V1.71554C5.67754 1.60261 5.66625 1.48968 5.64366 1.38428L6.02386 1.33911H6.02762C6.05021 1.33535 8.50078 1.01914 10.9212 1.07184C10.9363 1.07184 10.9551 1.07184 10.9739 1.07184C12.1145 0.981499 13.0368 1.00785 13.7181 1.15466C14.5613 1.33535 15.1185 1.65155 15.3744 2.0995C15.6417 2.56251 15.4949 3.04058 15.4836 3.08575C15.4045 3.29656 15.4761 3.52618 15.6568 3.6617C16.771 4.49737 16.259 5.47233 16.1913 5.59279C16.0671 5.78854 16.0972 6.03698 16.259 6.20638C16.5828 6.54516 16.7409 6.88395 16.7296 7.21521C16.7145 7.70834 16.3343 8.07724 16.308 8.09983C16.1198 8.26169 16.0859 8.53649 16.2214 8.74729Z" fill="black" fill-opacity="0.54"/>
</svg>
