<svg width="36" height="36" viewBox="0 0 36 36" fill="none" xmlns="http://www.w3.org/2000/svg">
<path d="M34.0125 0H1.9875C0.890625 0 0 0.890625 0 1.9875V34.0125C0 35.1094 0.890625 36 1.9875 36H18V21.75H13.6969V16.5H18V12.6188C18 7.96875 21.225 5.4375 25.3781 5.4375C27.3656 5.4375 29.5031 5.5875 30 5.65313V10.5094H26.6906C24.4313 10.5094 24 11.5781 24 13.1531V16.5H29.3812L28.6781 21.75H24V36H34.0125C35.1094 36 36 35.1094 36 34.0125V1.9875C36 0.890625 35.1094 0 34.0125 0Z" fill="white" fill-opacity="0.54"/>
</svg>
