<svg width="18" height="18" viewBox="0 0 18 18" fill="none" xmlns="http://www.w3.org/2000/svg">
<path d="M6.31096 6.9558C8.20979 6.9558 9.75461 5.41104 9.75461 3.51226C9.75461 1.61342 8.20979 0.0686035 6.31096 0.0686035C4.41213 0.0686035 2.86731 1.61342 2.86731 3.51226C2.86731 5.41104 4.41213 6.9558 6.31096 6.9558ZM6.31096 1.71494C7.302 1.71494 8.10827 2.52121 8.10827 3.51226C8.10827 4.50324 7.302 5.30946 6.31096 5.30946C5.31992 5.30946 4.51365 4.50324 4.51365 3.51226C4.51365 2.52121 5.31992 1.71494 6.31096 1.71494Z" fill="black" fill-opacity="0.54"/>
<path d="M13.0943 9.94077C12.7728 9.61935 12.2516 9.61934 11.9301 9.94082L10.2838 11.5873C10.1294 11.7417 10.0427 11.9511 10.0427 12.1694C10.0427 12.3877 10.1295 12.5971 10.2839 12.7515L11.9302 14.3977C12.0909 14.5584 12.3016 14.6388 12.5122 14.6388C12.7229 14.6388 12.9336 14.5584 13.0943 14.3976C13.4158 14.0762 13.4157 13.5549 13.0943 13.2335L12.03 12.1693L13.0943 11.1049C13.4158 10.7834 13.4157 10.2622 13.0943 9.94077Z" fill="black" fill-opacity="0.54"/>
<path d="M12.2378 6.40698C10.3452 6.40698 8.66283 7.32432 7.61175 8.73765C7.18573 8.64831 6.75049 8.6021 6.31098 8.6021C2.8311 8.6021 0 11.4332 0 14.9131C0 15.3677 0.368561 15.7362 0.823171 15.7362H7.71563C8.77187 17.0724 10.4064 17.9314 12.2378 17.9314C15.4151 17.9314 18 15.3465 18 12.1692C18 8.9919 15.4151 6.40698 12.2378 6.40698ZM1.71905 14.0899C2.10902 11.9091 4.01971 10.2484 6.31098 10.2484C6.47374 10.2484 6.63552 10.2575 6.79615 10.2741C6.58877 10.8679 6.47561 11.5055 6.47561 12.1692C6.47561 12.8424 6.59206 13.4888 6.80521 14.0899H1.71905ZM12.2378 16.285C9.96832 16.285 8.12195 14.4387 8.12195 12.1692C8.12195 9.8997 9.96832 8.05332 12.2378 8.05332C14.5073 8.05332 16.3537 9.8997 16.3537 12.1692C16.3537 14.4387 14.5073 16.285 12.2378 16.285Z" fill="black" fill-opacity="0.54"/>
</svg>
