<svg width="300" height="300" viewBox="0 0 300 300" fill="none" xmlns="http://www.w3.org/2000/svg">
<g clip-path="url(#clip0)">
<path d="M299.162 155C299.725 156.53 300.001 158.1 300.001 159.644C300.001 165.1 296.645 170.24 291.23 172.247L124.291 234.006C122.775 234.57 121.198 234.845 119.627 234.845C117.715 234.845 115.809 234.435 114.024 233.61C110.769 232.114 108.287 229.436 107.045 226.074L72.8063 133.532C71.5647 130.17 71.7059 126.526 73.2023 123.271C74.6988 120.01 77.3766 117.534 80.7387 116.285L247.683 54.5256C251.045 53.284 254.689 53.4252 257.944 54.9217C261.205 56.4182 263.681 59.0959 264.923 62.458L299.162 155ZM284.163 153.121L254.454 72.8397L213.753 131.036L284.163 153.121ZM131.754 216.933L274.453 164.14L205.68 142.571L195.057 157.771C193.782 159.59 191.715 160.637 189.554 160.637C189.004 160.637 188.44 160.563 187.883 160.422L169.932 155.805L131.754 216.933ZM186.722 146.262L238.502 72.2356L99.2268 123.761L186.722 146.262ZM117.212 214.88L156.295 152.295L87.5162 134.606L117.212 214.88Z" fill="#0039CB"/>
<path d="M254.454 72.8391L284.163 153.121L213.753 131.036L254.454 72.8391Z" fill="#768FFF"/>
<path d="M274.453 164.14L131.754 216.933L169.932 155.805L187.883 160.422C188.44 160.563 189.004 160.637 189.554 160.637C191.715 160.637 193.782 159.59 195.057 157.772L205.68 142.572L274.453 164.14Z" fill="#768FFF"/>
<path d="M238.502 72.2355L186.722 146.262L99.2268 123.761L238.502 72.2355Z" fill="#2962FF"/>
<path d="M156.295 152.295L117.212 214.88L87.5162 134.606L156.295 152.295Z" fill="#768FFF"/>
<path d="M78.1881 227.912C79.4766 231.389 77.6982 235.247 74.2219 236.535L48.9357 245.89C48.1641 246.172 47.3789 246.314 46.6072 246.314C43.8762 246.314 41.3127 244.636 40.3125 241.925C39.024 238.448 40.8023 234.59 44.2787 233.302L69.5648 223.947C73.0412 222.664 76.8996 224.436 78.1881 227.912Z" fill="#0039CB"/>
<path d="M43.9564 165.609C45.2449 169.086 43.4666 172.951 39.9973 174.233L24.3814 180.011C23.6162 180.292 22.8311 180.427 22.0529 180.427C19.3283 180.427 16.7648 178.755 15.7582 176.044C14.4762 172.568 16.248 168.71 19.7244 167.421L35.3402 161.643C38.8096 160.362 42.675 162.133 43.9564 165.609Z" fill="#0039CB"/>
<path d="M24.6094 216.45C25.8914 219.926 24.1195 223.785 20.6432 225.067L9.04043 229.362C8.2752 229.644 7.49004 229.778 6.71192 229.778C3.98731 229.778 1.42383 228.107 0.417189 225.396C-0.864843 221.919 0.907032 218.061 4.3834 216.772L15.9861 212.484C19.4619 211.196 23.3209 212.974 24.6094 216.45Z" fill="#0039CB"/>
</g>
<defs>
<clipPath id="clip0">
<rect width="300" height="300" fill="white"/>
</clipPath>
</defs>
</svg>
