<svg width="18" height="18" viewBox="0 0 18 18" fill="none" xmlns="http://www.w3.org/2000/svg">
<g clip-path="url(#clip0)">
<path d="M17.2237 12.2371C17.5926 11.7666 17.7695 11.2622 17.7469 10.7428C17.7243 10.1706 17.4683 9.72271 17.2576 9.44793C17.5022 8.83814 17.5963 7.87829 16.7795 7.133C16.181 6.5872 15.1647 6.34253 13.7569 6.41029C12.767 6.45546 11.9389 6.6399 11.905 6.64743H11.9012C11.713 6.6813 11.5135 6.72271 11.3103 6.76788C11.2952 6.52698 11.3366 5.92848 11.7808 4.58093C12.3077 2.97742 12.2776 1.75031 11.6829 0.929736C11.0581 0.0677541 10.0606 0 9.76697 0C9.48466 0 9.22493 0.116688 9.04049 0.331242C8.62267 0.816813 8.67161 1.71267 8.72431 2.12673C8.22744 3.45922 6.83472 6.72647 5.65655 7.63363C5.63397 7.64868 5.61515 7.6675 5.59633 7.68632C5.25003 8.05144 5.01665 8.44668 4.85856 8.79297C4.63648 8.67252 4.38428 8.60477 4.11326 8.60477H1.81715C0.951407 8.60477 0.251282 9.30866 0.251282 10.1706V16.2873C0.251282 17.1531 0.955171 17.8532 1.81715 17.8532H4.11326C4.44827 17.8532 4.76069 17.7478 5.01665 17.5671L5.90122 17.6725C6.03673 17.6913 8.44576 17.9962 10.9188 17.9473C11.3667 17.9812 11.7883 18 12.1798 18C12.8535 18 13.4407 17.9473 13.9301 17.8419C15.0819 17.5972 15.8686 17.1079 16.2676 16.389C16.5725 15.8394 16.5725 15.2936 16.5236 14.9473C17.2726 14.2698 17.4044 13.5207 17.378 12.9937C17.363 12.6888 17.2952 12.4291 17.2237 12.2371ZM1.81715 16.8369C1.51226 16.8369 1.26759 16.5885 1.26759 16.2873V10.1669C1.26759 9.86198 1.51602 9.61731 1.81715 9.61731H4.11326C4.41816 9.61731 4.66283 9.86575 4.66283 10.1669V16.2836C4.66283 16.5885 4.41439 16.8331 4.11326 16.8331H1.81715V16.8369ZM16.2601 11.7967C16.102 11.9624 16.0719 12.2146 16.1923 12.4103C16.1923 12.4141 16.3466 12.6775 16.3655 13.0389C16.3918 13.532 16.1547 13.9686 15.6578 14.3413C15.4809 14.4768 15.4094 14.7102 15.4847 14.921C15.4847 14.9247 15.6465 15.4216 15.383 15.8921C15.1308 16.3438 14.57 16.6675 13.7193 16.8482C13.038 16.995 12.112 17.0213 10.9752 16.931C10.9602 16.931 10.9414 16.931 10.9225 16.931C8.50222 16.9837 6.05555 16.6675 6.0292 16.6637H6.02543L5.64526 16.6186C5.66784 16.5132 5.67914 16.4003 5.67914 16.2873V10.1669C5.67914 10.005 5.65279 9.84693 5.60762 9.70013C5.67537 9.44793 5.86358 8.88708 6.30774 8.40903C7.99783 7.06901 9.65028 2.54831 9.7218 2.35257C9.75191 2.27353 9.75944 2.18695 9.74438 2.10038C9.68039 1.6788 9.70298 1.16311 9.79331 1.00878C9.99281 1.01255 10.5311 1.06901 10.8548 1.51694C11.2387 2.04768 11.2237 2.99624 10.8096 4.25345C10.1773 6.16938 10.1246 7.17817 10.6252 7.62233C10.8736 7.84442 11.2049 7.85571 11.4458 7.76913C11.6754 7.71644 11.8937 7.67127 12.1007 7.63739C12.1158 7.63363 12.1346 7.62986 12.1497 7.6261C13.3052 7.3739 15.3755 7.21957 16.0944 7.87453C16.7042 8.43162 16.2714 9.16938 16.2224 9.24843C16.0832 9.45922 16.1246 9.734 16.3128 9.90339C16.3165 9.90715 16.7118 10.2798 16.7306 10.7804C16.7456 11.1154 16.5875 11.458 16.2601 11.7967Z" fill="black" fill-opacity="0.54"/>
</g>
<defs>
<clipPath id="clip0">
<rect width="18" height="18" fill="white"/>
</clipPath>
</defs>
</svg>
