<svg width="80" height="32" viewBox="0 0 80 32" fill="none" xmlns="http://www.w3.org/2000/svg">
<g opacity="0.9">
<path d="M38.7825 6.52306C37.5716 6.17497 36.6891 5.74843 36.1351 5.24345C35.586 4.73357 35.3114 4.10602 35.3114 3.36081C35.3114 2.51754 35.6472 1.82136 36.3189 1.27225C36.9955 0.718247 37.8731 0.441244 38.9517 0.441244C39.6871 0.441244 40.3416 0.583423 40.9152 0.86778C41.4937 1.15214 41.9399 1.54435 42.2536 2.04443C42.5723 2.54451 42.7317 3.09116 42.7317 3.68439H41.3123C41.3123 3.03723 41.1064 2.5298 40.6946 2.1621C40.2828 1.78949 39.7018 1.60319 38.9517 1.60319C38.2555 1.60319 37.7113 1.75762 37.3191 2.06649C36.9317 2.37046 36.7381 2.79455 36.7381 3.33875C36.7381 3.77509 36.9219 4.14524 37.2896 4.44921C37.6623 4.74828 38.2923 5.02283 39.1796 5.27287C40.0719 5.5229 40.7681 5.79991 41.2682 6.10388C41.7732 6.40294 42.1458 6.75349 42.386 7.15551C42.6311 7.55753 42.7537 8.03064 42.7537 8.57484C42.7537 9.44262 42.4154 10.1388 41.7389 10.6634C41.0623 11.1831 40.1577 11.4429 39.0252 11.4429C38.2898 11.4429 37.6034 11.3032 36.9661 11.0237C36.3287 10.7394 35.836 10.3521 35.4879 9.8618C35.1447 9.37153 34.9731 8.81508 34.9731 8.19243H36.3925C36.3925 8.83959 36.6302 9.35192 37.1058 9.72943C37.5863 10.102 38.2261 10.2883 39.0252 10.2883C39.7704 10.2883 40.3416 10.1364 40.7387 9.83239C41.1358 9.52842 41.3344 9.11414 41.3344 8.58955C41.3344 8.06496 41.1505 7.66049 40.7828 7.37613C40.4151 7.08687 39.7484 6.80251 38.7825 6.52306Z" fill="white"/>
<path d="M47.6589 11.4429C46.5803 11.4429 45.7027 11.0899 45.0261 10.3839C44.3495 9.67305 44.0113 8.72438 44.0113 7.53792V7.28788C44.0113 6.49854 44.1608 5.79501 44.4599 5.17726C44.7638 4.55462 45.1855 4.06925 45.7248 3.72116C46.269 3.36816 46.8573 3.19167 47.4897 3.19167C48.5242 3.19167 49.3283 3.5324 49.9019 4.21388C50.4755 4.89536 50.7623 5.871 50.7623 7.1408V7.70706H45.3718C45.3914 8.4915 45.6194 9.1264 46.0557 9.61177C46.4969 10.0922 47.0558 10.3325 47.7324 10.3325C48.2129 10.3325 48.6198 10.2344 48.9532 10.0383C49.2866 9.84219 49.5783 9.58235 49.8283 9.25877L50.6593 9.90593C49.9926 10.9306 48.9924 11.4429 47.6589 11.4429ZM47.4897 4.30948C46.9406 4.30948 46.4798 4.51049 46.1072 4.91252C45.7346 5.30964 45.5041 5.86855 45.4159 6.58924H49.4018V6.48629C49.3626 5.79501 49.1763 5.26061 48.8429 4.8831C48.5095 4.50069 48.0584 4.30948 47.4897 4.30948Z" fill="white"/>
<path d="M57.2559 11.2958C57.1775 11.139 57.1138 10.8595 57.0647 10.4575C56.4323 11.1144 55.6773 11.4429 54.7997 11.4429C54.0152 11.4429 53.3705 11.2223 52.8656 10.7811C52.3655 10.3349 52.1154 9.7711 52.1154 9.08963C52.1154 8.26107 52.4292 7.61881 53.0568 7.16286C53.6892 6.70201 54.5766 6.47158 55.7189 6.47158H57.0427V5.84648C57.0427 5.37092 56.9005 4.99341 56.6161 4.71396C56.3318 4.4296 55.9126 4.28742 55.3586 4.28742C54.8732 4.28742 54.4663 4.40999 54.1378 4.65512C53.8093 4.90026 53.6451 5.19687 53.6451 5.54497H52.2772C52.2772 5.14785 52.417 4.76544 52.6964 4.39773C52.9808 4.02513 53.3632 3.73096 53.8436 3.51524C54.329 3.29953 54.861 3.19167 55.4395 3.19167C56.3563 3.19167 57.0745 3.42209 57.5942 3.88295C58.1139 4.3389 58.3836 4.9689 58.4032 5.77294V9.43527C58.4032 10.1658 58.4963 10.7467 58.6826 11.1782V11.2958H57.2559ZM54.9982 10.2589C55.4248 10.2589 55.8292 10.1486 56.2117 9.92799C56.5941 9.70737 56.8711 9.42056 57.0427 9.06757V7.43496H55.9763C54.3094 7.43496 53.4759 7.92278 53.4759 8.89842C53.4759 9.32496 53.6181 9.65834 53.9025 9.89858C54.1868 10.1388 54.5521 10.2589 54.9982 10.2589Z" fill="white"/>
<path d="M64.382 4.55952C64.1761 4.5252 63.953 4.50804 63.7128 4.50804C62.8205 4.50804 62.215 4.888 61.8963 5.64792V11.2958H60.5358V3.33875H61.8596L61.8816 4.25801C62.3278 3.54711 62.9602 3.19167 63.779 3.19167C64.0437 3.19167 64.2447 3.22598 64.382 3.29462V4.55952Z" fill="white"/>
<path d="M68.6842 10.3325C69.1695 10.3325 69.5936 10.1854 69.9564 9.89122C70.3192 9.59706 70.5202 9.22936 70.5594 8.78811H71.8464C71.8219 9.24406 71.665 9.67795 71.3757 10.0898C71.0865 10.5016 70.6992 10.8301 70.2138 11.0752C69.7333 11.3204 69.2235 11.4429 68.6842 11.4429C67.6007 11.4429 66.7378 11.0826 66.0955 10.3619C65.4582 9.63628 65.1395 8.64593 65.1395 7.39084V7.16286C65.1395 6.38823 65.2817 5.6994 65.566 5.09637C65.8504 4.49334 66.2573 4.02513 66.7868 3.69174C67.3212 3.35836 67.9512 3.19167 68.6768 3.19167C69.5691 3.19167 70.3094 3.45886 70.8977 3.99326C71.491 4.52765 71.8072 5.22139 71.8464 6.07446H70.5594C70.5202 5.55968 70.3241 5.13804 69.9711 4.80956C69.623 4.47618 69.1916 4.30948 68.6768 4.30948C67.9855 4.30948 67.4487 4.55952 67.0663 5.0596C66.6887 5.55477 66.5 6.27302 66.5 7.21434V7.47173C66.5 8.38854 66.6887 9.09453 67.0663 9.5897C67.4438 10.0849 67.9831 10.3325 68.6842 10.3325Z" fill="white"/>
<path d="M74.7365 4.30213C75.3396 3.56182 76.124 3.19167 77.0898 3.19167C78.7715 3.19167 79.6196 4.14034 79.6344 6.03769V11.2958H78.2739V6.03034C78.2689 5.45672 78.1366 5.03263 77.8767 4.75808C77.6218 4.48353 77.2222 4.34625 76.678 4.34625C76.2368 4.34625 75.8495 4.46392 75.5161 4.69925C75.1827 4.93458 74.9228 5.24345 74.7365 5.62586V11.2958H73.376V0H74.7365V4.30213Z" fill="white"/>
<path d="M41.68 23.9179H37.0396V27.7126H42.4301V28.8672H35.6276V18.1596H42.3566V19.3216H37.0396V22.7633H41.68V23.9179Z" fill="white"/>
<path d="M45.2615 20.9101L45.3056 21.9102C45.9135 21.1454 46.7078 20.763 47.6883 20.763C49.3699 20.763 50.2181 21.7117 50.2328 23.609V28.8672H48.8723V23.6017C48.8674 23.028 48.735 22.604 48.4752 22.3294C48.2202 22.0548 47.8207 21.9176 47.2765 21.9176C46.8352 21.9176 46.4479 22.0352 46.1145 22.2706C45.7811 22.5059 45.5213 22.8148 45.335 23.1972V28.8672H43.9745V20.9101H45.2615Z" fill="white"/>
<path d="M51.961 24.8224C51.961 23.582 52.2478 22.5966 52.8214 21.8661C53.395 21.1307 54.155 20.763 55.1012 20.763C56.0719 20.763 56.8294 21.1062 57.3736 21.7926L57.4398 20.9101H58.6826V28.676C58.6826 29.7055 58.3762 30.5169 57.7634 31.1102C57.1554 31.7034 56.3367 32 55.3071 32C54.7335 32 54.1721 31.8774 53.623 31.6323C53.0739 31.3872 52.6547 31.0513 52.3655 30.6248L53.0715 29.8085C53.6549 30.5292 54.3682 30.8895 55.2115 30.8895C55.8734 30.8895 56.3882 30.7032 56.7559 30.3306C57.1285 29.958 57.3148 29.4334 57.3148 28.7569V28.0729C56.7706 28.7005 56.0278 29.0142 55.0865 29.0142C54.155 29.0142 53.4 28.6392 52.8214 27.8891C52.2478 27.139 51.961 26.1167 51.961 24.8224ZM53.3289 24.9769C53.3289 25.8741 53.5127 26.5801 53.8804 27.0948C54.2481 27.6047 54.7629 27.8597 55.4248 27.8597C56.2827 27.8597 56.9127 27.4699 57.3148 26.6904V23.0575C56.898 22.2975 56.2729 21.9176 55.4395 21.9176C54.7776 21.9176 54.2604 22.175 53.8878 22.6898C53.5152 23.2045 53.3289 23.9669 53.3289 24.9769Z" fill="white"/>
<path d="M62.2199 28.8672H60.8594V20.9101H62.2199V28.8672ZM60.7491 18.7994C60.7491 18.5788 60.8153 18.3925 60.9477 18.2405C61.0849 18.0886 61.286 18.0126 61.5507 18.0126C61.8155 18.0126 62.0165 18.0886 62.1537 18.2405C62.291 18.3925 62.3597 18.5788 62.3597 18.7994C62.3597 19.0201 62.291 19.2039 62.1537 19.351C62.0165 19.4981 61.8155 19.5716 61.5507 19.5716C61.286 19.5716 61.0849 19.4981 60.9477 19.351C60.8153 19.2039 60.7491 19.0201 60.7491 18.7994Z" fill="white"/>
<path d="M65.691 20.9101L65.7352 21.9102C66.3431 21.1454 67.1373 20.763 68.1179 20.763C69.7995 20.763 70.6477 21.7117 70.6624 23.609V28.8672H69.3019V23.6017C69.297 23.028 69.1646 22.604 68.9048 22.3294C68.6498 22.0548 68.2503 21.9176 67.7061 21.9176C67.2648 21.9176 66.8775 22.0352 66.5441 22.2706C66.2107 22.5059 65.9509 22.8148 65.7646 23.1972V28.8672H64.4041V20.9101H65.691Z" fill="white"/>
<path d="M76.0162 29.0142C74.9376 29.0142 74.06 28.6613 73.3834 27.9553C72.7068 27.2444 72.3685 26.2957 72.3685 25.1092V24.8592C72.3685 24.0699 72.5181 23.3663 72.8171 22.7486C73.1211 22.1259 73.5427 21.6406 74.082 21.2925C74.6262 20.9395 75.2146 20.763 75.847 20.763C76.8815 20.763 77.6855 21.1037 78.2591 21.7852C78.8328 22.4667 79.1196 23.4423 79.1196 24.7121V25.2784H73.729C73.7487 26.0628 73.9766 26.6977 74.413 27.1831C74.8542 27.6636 75.4131 27.9038 76.0897 27.9038C76.5702 27.9038 76.9771 27.8057 77.3105 27.6096C77.6439 27.4135 77.9356 27.1537 78.1856 26.8301L79.0166 27.4772C78.3498 28.5019 77.3497 29.0142 76.0162 29.0142ZM75.847 21.8808C75.2979 21.8808 74.8371 22.0818 74.4644 22.4838C74.0918 22.881 73.8614 23.4399 73.7732 24.1606H77.7591V24.0576C77.7198 23.3663 77.5335 22.8319 77.2002 22.4544C76.8668 22.072 76.4157 21.8808 75.847 21.8808Z" fill="white"/>
</g>
<path fill-rule="evenodd" clip-rule="evenodd" d="M20.2827 2.37063C19.2257 2.09419 18.1164 1.94702 16.9728 1.94702C9.76807 1.94702 3.92752 7.78758 3.92752 14.9923C3.92752 18.3185 5.1724 21.3539 7.22165 23.6581L6.45901 24.4208C6.15707 24.2239 5.74851 24.258 5.48347 24.523L0.114058 29.8924C-0.0380194 30.0445 -0.0380194 30.2911 0.114058 30.4431L1.49084 31.8199C1.6429 31.972 1.88947 31.972 2.04154 31.8199L7.41096 26.4505C7.65899 26.2025 7.70475 25.8288 7.54825 25.5344L8.32403 24.7586C10.6261 26.7988 13.6548 28.0375 16.9728 28.0375C24.1774 28.0375 30.018 22.1969 30.018 14.9923C30.018 14.3306 29.9687 13.6804 29.8737 13.0452H27.505C27.6209 13.6766 27.6815 14.3274 27.6815 14.9923C27.6815 20.9065 22.887 25.701 16.9728 25.701C11.0585 25.701 6.26398 20.9065 6.26398 14.9923C6.26398 9.07797 11.0585 4.28348 16.9728 4.28348C18.1279 4.28348 19.2404 4.4664 20.2827 4.80483V2.37063ZM12.1051 14.0187C10.0023 12.6947 8.04878 13.4671 7.33485 14.0187L16.778 23.4619C19.7376 16.5304 26.6431 8.50208 29.7259 5.35436L30.4074 6.61994L33.328 2.72584H27.8762L28.9471 4.08878C24.6636 6.34735 17.9463 13.1426 15.1231 16.2578L12.1051 14.0187ZM17.5569 10.1246C17.5569 11.7376 16.2493 13.0452 14.6363 13.0452C13.0233 13.0452 11.7157 11.7376 11.7157 10.1246C11.7157 8.51164 13.0233 7.20406 14.6363 7.20406C16.2493 7.20406 17.5569 8.51164 17.5569 10.1246Z" fill="white"/>
</svg>
