<svg width="16" height="16" viewBox="0 0 16 16" fill="none" xmlns="http://www.w3.org/2000/svg">
<path d="M7.99998 7.66634C7.55795 7.66634 7.13403 7.49075 6.82147 7.17819C6.50891 6.86562 6.33331 6.4417 6.33331 5.99967C6.33331 5.55765 6.50891 5.13372 6.82147 4.82116C7.13403 4.5086 7.55795 4.33301 7.99998 4.33301C8.44201 4.33301 8.86593 4.5086 9.17849 4.82116C9.49105 5.13372 9.66665 5.55765 9.66665 5.99967C9.66665 6.21854 9.62354 6.43527 9.53978 6.63748C9.45602 6.83969 9.33326 7.02342 9.17849 7.17819C9.02373 7.33295 8.83999 7.45572 8.63779 7.53947C8.43558 7.62323 8.21885 7.66634 7.99998 7.66634ZM7.99998 1.33301C6.7623 1.33301 5.57532 1.82467 4.70015 2.69984C3.82498 3.57501 3.33331 4.762 3.33331 5.99967C3.33331 9.49967 7.99998 14.6663 7.99998 14.6663C7.99998 14.6663 12.6666 9.49967 12.6666 5.99967C12.6666 4.762 12.175 3.57501 11.2998 2.69984C10.4246 1.82467 9.23766 1.33301 7.99998 1.33301Z" fill="#768FFF"/>
</svg>
