<svg width="18" height="18" viewBox="0 0 18 18" fill="none" xmlns="http://www.w3.org/2000/svg">
<path d="M17.9649 8.99975L17.9647 9.03491C17.9582 10.7459 17.4698 12.4077 16.5515 13.8435C16.4173 14.0532 16.1903 14.1679 15.9585 14.1679C15.8289 14.1679 15.6976 14.1319 15.5803 14.0569C15.2532 13.8476 15.1576 13.4128 15.3669 13.0857C16.1433 11.8718 16.5553 10.4653 16.5586 9.01733C16.5492 4.83813 13.1619 1.44116 9.00003 1.44116C6.34078 1.44116 3.87353 2.8518 2.50724 5.09494L4.1144 5.09741C4.50277 5.09796 4.81698 5.41327 4.81643 5.80163C4.81588 6.18945 4.50112 6.50366 4.1133 6.50366C4.11303 6.50366 4.11262 6.50366 4.11221 6.50366L2.05501 6.5005C1.49457 6.50173 0.972859 6.28723 0.580784 5.89529C0.181293 5.4958 -0.0374724 4.95953 -0.0351378 4.38522V2.35522C-0.0351378 1.96686 0.279621 1.6521 0.667988 1.6521C1.05635 1.6521 1.37111 1.96686 1.37111 2.35522V4.25737C2.06682 3.14747 2.99847 2.19922 4.10781 1.47948C5.5646 0.534378 7.25622 0.0349121 9.00003 0.0349121C11.4026 0.0349121 13.657 0.971633 15.3479 2.67245C17.0272 4.3616 17.9558 6.60748 17.9649 8.99975ZM13.3433 15.2295C12.0662 16.1218 10.5643 16.5935 9.00003 16.5935C8.99412 16.5935 8.98835 16.5942 8.98245 16.5943C8.97654 16.5942 8.97078 16.5935 8.96487 16.5935C8.85817 16.5935 8.74968 16.5912 8.64242 16.5868C8.25556 16.5706 7.92694 16.8721 7.91073 17.2601C7.89466 17.648 8.1961 17.9757 8.58419 17.9918C8.71067 17.997 8.8388 17.9997 8.96487 17.9997C8.97078 17.9997 8.97654 17.9991 8.98245 17.9989C8.98835 17.9991 8.99412 17.9997 9.00003 17.9997C10.8538 17.9997 12.6342 17.4405 14.1488 16.3824C14.4671 16.1599 14.545 15.7216 14.3225 15.4033C14.1002 15.0849 13.6618 15.0072 13.3433 15.2295ZM3.38958 14.1555C3.12591 13.8705 2.68096 13.8531 2.396 14.1169C2.11091 14.3806 2.0936 14.8254 2.35741 15.1105C2.51589 15.2819 2.68329 15.4491 2.85468 15.6079C2.98995 15.733 3.1612 15.7948 3.33204 15.7948C3.52114 15.7948 3.70969 15.719 3.8484 15.5692C4.11207 15.2842 4.09476 14.8393 3.80981 14.5756C3.66479 14.4415 3.52347 14.3002 3.38958 14.1555ZM1.84353 11.6428C1.70826 11.2787 1.30368 11.0931 0.939625 11.2283C0.575565 11.3635 0.390034 11.7682 0.525165 12.1322C0.606464 12.3513 0.697514 12.5698 0.795841 12.7818C0.914906 13.0385 1.16883 13.1894 1.43429 13.1894C1.5333 13.1894 1.63382 13.1682 1.72954 13.1239C2.08193 12.9606 2.23505 12.5426 2.07163 12.1902C1.98882 12.0115 1.91205 11.8274 1.84353 11.6428ZM6.32307 16.1215C6.13822 16.053 5.95393 15.9761 5.77526 15.8933C5.42287 15.7298 5.00484 15.883 4.84156 16.2353C4.67814 16.5876 4.83126 17.0056 5.18351 17.169C5.39568 17.2674 5.61445 17.3586 5.8339 17.4399C5.91451 17.4698 5.99719 17.4841 6.07835 17.4841C6.36399 17.4841 6.63247 17.3087 6.73767 17.0253C6.87266 16.6612 6.68713 16.2566 6.32307 16.1215ZM0.704517 10.0537C1.09261 10.0377 1.39405 9.71001 1.37784 9.32206C1.37345 9.21536 1.37111 9.10687 1.37111 8.99975C1.37111 8.61138 1.05635 8.29663 0.667988 8.29663C0.279621 8.29663 -0.0351378 8.61138 -0.0351378 8.99975C-0.0351378 9.12637 -0.0323912 9.25449 -0.0271727 9.38056C-0.0115171 9.75863 0.299946 10.0544 0.674717 10.0544C0.684605 10.0544 0.69463 10.0542 0.704517 10.0537ZM6.27651 9.39416C6.49789 9.21398 6.73684 9.05811 6.98802 8.92683C6.57768 8.45689 6.32815 7.84303 6.32815 7.17163C6.32815 5.69836 7.52676 4.49975 9.00003 4.49975C10.4733 4.49975 11.6719 5.69836 11.6719 7.17163C11.6719 7.84303 11.4224 8.45689 11.0119 8.92683C11.2632 9.05811 11.502 9.21398 11.7235 9.39416C12.4727 10.0038 12.9937 10.8551 13.1906 11.791C13.2717 12.1756 13.1759 12.5714 12.9282 12.8767C12.6795 13.1833 12.3097 13.3591 11.9136 13.3591H6.08645C5.69039 13.3591 5.32056 13.1833 5.07186 12.8767C4.82412 12.5714 4.7284 12.1756 4.80929 11.791C5.00622 10.8551 5.52725 10.0038 6.27651 9.39416ZM7.7344 7.17163C7.7344 7.86953 8.30212 8.43725 9.00003 8.43725C9.69793 8.43725 10.2657 7.86953 10.2657 7.17163C10.2657 6.47372 9.69793 5.906 9.00003 5.906C8.30212 5.906 7.7344 6.47372 7.7344 7.17163ZM6.21554 11.9529H11.7845C11.4639 10.723 10.3236 9.8435 9.02392 9.8435H8.97613C7.67645 9.8435 6.5362 10.723 6.21554 11.9529Z" fill="black" fill-opacity="0.54"/>
</svg>
