<svg width="352" height="237" viewBox="0 0 352 237" fill="none" xmlns="http://www.w3.org/2000/svg">
<path fill-rule="evenodd" clip-rule="evenodd" d="M191.997 133L143.5 105L84 208.057L84.2487 208.201L129.249 185.684L132.249 235.913L132.497 236.057L191.997 133Z" fill="url(#paint0_linear)"/>
<path fill-rule="evenodd" clip-rule="evenodd" d="M208.497 105L160 133L219.5 236.057L219.749 235.913L222.749 185.684L267.749 208.201L267.997 208.057L208.497 105Z" fill="url(#paint1_linear)"/>
<path d="M24.4067 99H120V118H43.4067C32.9133 118 24.4067 109.493 24.4067 99Z" fill="#4B7AFE"/>
<path d="M48.8136 118H120V136H66.8136C56.8725 136 48.8136 127.941 48.8136 118Z" fill="#7096FF"/>
<path d="M232 99H327.593C327.593 109.493 319.087 118 308.593 118H232V99Z" fill="#4B7AFE"/>
<path d="M232 118H303.186C303.186 127.941 295.128 136 285.186 136H232V118Z" fill="#7096FF"/>
<path d="M256 80C256 124.183 220.183 160 176 160C131.817 160 96 124.183 96 80C96 35.8172 131.817 0 176 0C220.183 0 256 35.8172 256 80Z" fill="#C4C4C4"/>
<path d="M248 80C248 119.765 215.765 152 176 152C136.235 152 104 119.765 104 80C104 40.2355 136.235 8 176 8C215.765 8 248 40.2355 248 80Z" fill="url(#paint2_linear)"/>
<path d="M194.25 105H159.832V99.1289L176.883 80.5312C179.344 77.7891 181.09 75.5039 182.121 73.6758C183.176 71.8242 183.703 69.9727 183.703 68.1211C183.703 65.6836 183.012 63.7148 181.629 62.2148C180.27 60.7148 178.43 59.9648 176.109 59.9648C173.344 59.9648 171.199 60.8086 169.676 62.4961C168.152 64.1836 167.391 66.4922 167.391 69.4219H158.848C158.848 66.3047 159.551 63.5039 160.957 61.0195C162.387 58.5117 164.414 56.5664 167.039 55.1836C169.688 53.8008 172.734 53.1094 176.18 53.1094C181.148 53.1094 185.062 54.3633 187.922 56.8711C190.805 59.3555 192.246 62.8008 192.246 67.207C192.246 69.7617 191.52 72.4453 190.066 75.2578C188.637 78.0469 186.281 81.2227 183 84.7852L170.484 98.1797H194.25V105Z" fill="#C4C4C4"/>
<defs>
<linearGradient id="paint0_linear" x1="167.749" y1="119" x2="108.249" y2="222.057" gradientUnits="userSpaceOnUse">
<stop stop-color="#2962FF"/>
<stop offset="0.53125" stop-color="#768FFF"/>
<stop offset="1" stop-color="#2962FF"/>
</linearGradient>
<linearGradient id="paint1_linear" x1="184.249" y1="119" x2="243.749" y2="222.057" gradientUnits="userSpaceOnUse">
<stop stop-color="#2962FF"/>
<stop offset="0.510417" stop-color="#768FFF"/>
<stop offset="1" stop-color="#2962FF"/>
</linearGradient>
<linearGradient id="paint2_linear" x1="176" y1="8" x2="176" y2="152" gradientUnits="userSpaceOnUse">
<stop stop-color="#E2E2E2"/>
<stop offset="0.510417" stop-color="#F4F4F4"/>
<stop offset="1" stop-color="#E2E2E2"/>
</linearGradient>
</defs>
</svg>
