<svg width="352" height="237" viewBox="0 0 352 237" fill="none" xmlns="http://www.w3.org/2000/svg">
<path fill-rule="evenodd" clip-rule="evenodd" d="M191.997 133L143.5 105L84 208.057L84.2487 208.201L129.249 185.684L132.249 235.913L132.497 236.057L191.997 133Z" fill="url(#paint0_linear)"/>
<path fill-rule="evenodd" clip-rule="evenodd" d="M208.497 105L160 133L219.5 236.057L219.749 235.913L222.749 185.684L267.749 208.201L267.997 208.057L208.497 105Z" fill="url(#paint1_linear)"/>
<path d="M48.8136 118H120V136H66.8136C56.8725 136 48.8136 127.941 48.8136 118Z" fill="#7096FF"/>
<path d="M232 118H303.186C303.186 127.941 295.128 136 285.186 136H232V118Z" fill="#7096FF"/>
<path d="M256 80C256 124.183 220.183 160 176 160C131.817 160 96 124.183 96 80C96 35.8172 131.817 0 176 0C220.183 0 256 35.8172 256 80Z" fill="#DB7B27"/>
<path d="M248 80C248 119.765 215.765 152 176 152C136.235 152 104 119.765 104 80C104 40.2355 136.235 8 176 8C215.765 8 248 40.2355 248 80Z" fill="url(#paint2_linear)"/>
<path d="M169.711 75.5039H174.914C177.539 75.4805 179.613 74.8008 181.137 73.4648C182.684 72.1289 183.457 70.1953 183.457 67.6641C183.457 65.2266 182.812 63.3398 181.523 62.0039C180.258 60.6445 178.312 59.9648 175.688 59.9648C173.391 59.9648 171.504 60.6328 170.027 61.9688C168.551 63.2812 167.812 65.0039 167.812 67.1367H159.27C159.27 64.5117 159.961 62.1211 161.344 59.9648C162.75 57.8086 164.695 56.1328 167.18 54.9375C169.688 53.7188 172.488 53.1094 175.582 53.1094C180.691 53.1094 184.699 54.3984 187.605 56.9766C190.535 59.5312 192 63.0938 192 67.6641C192 69.9609 191.262 72.1289 189.785 74.168C188.332 76.1836 186.445 77.707 184.125 78.7383C186.938 79.6992 189.07 81.2109 190.523 83.2734C192 85.3359 192.738 87.7969 192.738 90.6562C192.738 95.25 191.156 98.9062 187.992 101.625C184.852 104.344 180.715 105.703 175.582 105.703C170.66 105.703 166.629 104.391 163.488 101.766C160.348 99.1406 158.777 95.6484 158.777 91.2891H167.32C167.32 93.5391 168.07 95.3672 169.57 96.7734C171.094 98.1797 173.133 98.8828 175.688 98.8828C178.336 98.8828 180.422 98.1797 181.945 96.7734C183.469 95.3672 184.23 93.3281 184.23 90.6562C184.23 87.9609 183.434 85.8867 181.84 84.4336C180.246 82.9805 177.879 82.2539 174.738 82.2539H169.711V75.5039Z" fill="#DB7B27"/>
<defs>
<linearGradient id="paint0_linear" x1="167.749" y1="119" x2="108.249" y2="222.057" gradientUnits="userSpaceOnUse">
<stop stop-color="#2962FF"/>
<stop offset="0.53125" stop-color="#768FFF"/>
<stop offset="1" stop-color="#2962FF"/>
</linearGradient>
<linearGradient id="paint1_linear" x1="184.249" y1="119" x2="243.749" y2="222.057" gradientUnits="userSpaceOnUse">
<stop stop-color="#2962FF"/>
<stop offset="0.510417" stop-color="#768FFF"/>
<stop offset="1" stop-color="#2962FF"/>
</linearGradient>
<linearGradient id="paint2_linear" x1="176" y1="8" x2="176" y2="152" gradientUnits="userSpaceOnUse">
<stop stop-color="#F6C090"/>
<stop offset="0.541667" stop-color="#FDD6B4"/>
<stop offset="1" stop-color="#F6C090"/>
</linearGradient>
</defs>
</svg>
