<svg width="18" height="18" viewBox="0 0 18 18" fill="none" xmlns="http://www.w3.org/2000/svg">
<path d="M12.7501 11.25H14.2501V12.75H12.7501V11.25ZM12.7501 8.25H14.2501V9.75H12.7501V8.25ZM12.7501 5.25H14.2501V6.75H12.7501V5.25ZM10.3051 5.25L11.2501 5.88V5.25H10.3051Z" fill="black" fill-opacity="0.54"/>
<path d="M7.5 2.25V3.3825L9 4.38V3.75H15.75V14.25H12.75V15.75H17.25V2.25H7.5Z" fill="black" fill-opacity="0.54"/>
<path d="M6.1275 4.2749L11.25 7.6874V15.7499H0.75V7.8599L6.1275 4.2749ZM7.5 14.2499H9.75V8.3699L6.1275 6.0674L2.25 8.5349V14.2499H4.5V9.7499H7.5V14.2499Z" fill="black" fill-opacity="0.54"/>
</svg>
