<svg width="16" height="16" viewBox="0 0 16 16" fill="none" xmlns="http://www.w3.org/2000/svg">
<path d="M10.4999 8C9.85744 8 9.23619 7.71313 8.74994 7.1925C8.27713 6.68469 7.98838 6.0075 7.93744 5.28625C7.88307 4.51688 8.11775 3.80938 8.59807 3.29375C9.07838 2.77813 9.74994 2.5 10.4999 2.5C11.2446 2.5 11.9181 2.78312 12.3968 3.2975C12.8803 3.81687 13.1156 4.52312 13.0612 5.28594C13.009 6.00812 12.7206 6.685 12.2487 7.19219C11.7637 7.71312 11.1428 8 10.4999 8Z" fill="#768FFF"/>
<path d="M14.6197 13.5H6.38063C6.24817 13.5007 6.1173 13.471 5.99812 13.4132C5.87893 13.3554 5.77459 13.271 5.69313 13.1666C5.60673 13.0533 5.54706 12.922 5.51859 12.7824C5.49013 12.6429 5.4936 12.4987 5.52876 12.3606C5.79188 11.3041 6.44376 10.4278 7.41376 9.82687C8.27469 9.29375 9.37063 9 10.5 9C11.6516 9 12.7188 9.28125 13.5847 9.81406C14.5569 10.4119 15.2097 11.2931 15.4716 12.3625C15.5063 12.5006 15.5094 12.6448 15.4806 12.7843C15.4518 12.9238 15.3919 13.055 15.3053 13.1681C15.2239 13.2721 15.1198 13.3561 15.001 13.4136C14.8822 13.4711 14.7517 13.5007 14.6197 13.5Z" fill="#768FFF"/>
<path d="M4.59377 8.125C3.49408 8.125 2.5272 7.1025 2.43752 5.84594C2.39314 5.20219 2.59377 4.60687 3.00002 4.17031C3.40189 3.73812 3.96877 3.5 4.59377 3.5C5.21877 3.5 5.78126 3.73938 6.18533 4.17406C6.5947 4.61406 6.7947 5.20812 6.74783 5.84656C6.65814 7.10281 5.69158 8.125 4.59377 8.125Z" fill="#768FFF"/>
<path d="M6.64567 9.10821C6.09598 8.83945 5.38254 8.70508 4.5941 8.70508C3.67348 8.70508 2.77942 8.94508 2.07629 9.38071C1.2791 9.8754 0.742853 10.5957 0.526291 11.4654C0.494599 11.5905 0.491601 11.7211 0.517522 11.8475C0.543444 11.974 0.597613 12.0929 0.675978 12.1954C0.750337 12.2909 0.845598 12.368 0.954437 12.4209C1.06327 12.4737 1.18279 12.501 1.30379 12.5004H4.77254C4.83109 12.5004 4.88777 12.4798 4.93272 12.4423C4.97766 12.4048 5.00801 12.3527 5.01848 12.2951C5.02192 12.2754 5.02629 12.2557 5.03129 12.2363C5.29629 11.172 5.91723 10.2726 6.83473 9.61696C6.86847 9.59263 6.89562 9.56027 6.9137 9.52281C6.93178 9.48534 6.94022 9.44396 6.93826 9.4024C6.93631 9.36085 6.92402 9.32044 6.9025 9.28484C6.88098 9.24924 6.85092 9.21957 6.81504 9.19852C6.76598 9.16977 6.70973 9.13946 6.64567 9.10821Z" fill="#768FFF"/>
</svg>
