<svg width="18" height="18" viewBox="0 0 18 18" fill="none" xmlns="http://www.w3.org/2000/svg">
<g clip-path="url(#clip0)">
<path d="M17.7091 17.1H0.309094C0.143494 17.1 0.00909424 16.9659 0.00909424 16.8V4.8C0.00909424 4.6341 0.143494 4.5 0.309094 4.5H17.7091C17.8747 4.5 18.0091 4.6341 18.0091 4.8V16.8C18.0091 16.9659 17.8747 17.1 17.7091 17.1ZM0.609094 16.5H17.4091V5.1H0.609094V16.5Z" fill="black" fill-opacity="0.54"/>
<path d="M15.909 5.09996H2.10896C1.94336 5.09996 1.80896 4.96586 1.80896 4.79996V2.99995C1.80896 2.83405 1.94336 2.69995 2.10896 2.69995H15.909C16.0746 2.69995 16.209 2.83405 16.209 2.99995V4.79996C16.209 4.96586 16.0746 5.09996 15.909 5.09996ZM2.40896 4.49996H15.609V3.29995H2.40896V4.49996Z" fill="black" fill-opacity="0.54"/>
<path d="M14.1092 3.2999H3.90919C3.74359 3.2999 3.60919 3.1658 3.60919 2.9999V1.1999C3.60919 1.034 3.74359 0.899902 3.90919 0.899902H14.1092C14.2748 0.899902 14.4092 1.034 14.4092 1.1999V2.9999C14.4092 3.1658 14.2748 3.2999 14.1092 3.2999ZM4.20919 2.6999H13.8092V1.4999H4.20919V2.6999Z" fill="black" fill-opacity="0.54"/>
<path d="M7.51668 13.5186C7.41198 13.5186 7.30728 13.491 7.21158 13.4361C7.02228 13.3272 6.90918 13.1325 6.90918 12.9156V8.403C6.90918 8.1858 7.02228 7.9914 7.21158 7.8825C7.40028 7.7736 7.63518 7.7745 7.82358 7.8834L11.7089 10.14C11.897 10.2489 12.0092 10.4433 12.0092 10.6593C12.0092 10.8753 11.897 11.0694 11.7089 11.1786L7.82358 13.4349C7.72758 13.4907 7.62198 13.5186 7.51668 13.5186ZM7.52208 8.4018L7.50918 12.9153V12.9165L11.4074 10.6596L7.52208 8.4018Z" fill="black" fill-opacity="0.54"/>
</g>
<defs>
<clipPath id="clip0">
<rect width="18" height="18" fill="white"/>
</clipPath>
</defs>
</svg>
