<svg width="18" height="18" viewBox="0 0 18 18" fill="none" xmlns="http://www.w3.org/2000/svg">
<path d="M9.62182 4.1853H9.12744V3.69092H9.62182V4.1853ZM8.79785 4.1853H8.30347V3.69092H8.79785V4.1853Z" fill="black" fill-opacity="0.54"/>
<path d="M16.1216 16.9343H1.80383V6.16577H1.30945V17.4287H16.616V6.16577H16.1216V16.9343Z" fill="black" fill-opacity="0.54"/>
<path d="M5.67931 4.18528L6.08141 3.78307V0.955811L5.67931 0.553711H4.58116L4.17896 0.955811V3.78307L4.58116 4.18528H5.67931ZM4.67334 1.16057L4.78581 1.0481H5.47455L5.58702 1.16057V3.57832L5.47455 3.69089H4.78581L4.67334 3.57832V1.16057Z" fill="black" fill-opacity="0.54"/>
<path d="M13.3447 4.18528L13.7469 3.78307V0.955811L13.3447 0.553711H12.2466L11.8445 0.955811V3.78307L12.2466 4.18528H13.3447ZM12.3389 1.16057L12.4513 1.0481H13.1401L13.2525 1.16057V3.57832L13.1401 3.69089H12.4513L12.3389 3.57832V1.16057Z" fill="black" fill-opacity="0.54"/>
<path d="M14.1587 2.12231V2.6167H16.1216V5.25949H1.80383V2.6167H3.76675V2.12231H1.30945V5.75388H16.616V2.12231H14.1587Z" fill="black" fill-opacity="0.54"/>
<path d="M6.49329 2.12231H11.4324V2.6167H6.49329V2.12231Z" fill="black" fill-opacity="0.54"/>
<path d="M11.8727 7.08228L7.76696 11.1879L6.0532 9.47417L4.06628 11.4611L7.76686 15.1617L13.8595 9.06919L11.8727 7.08228ZM4.76553 11.4611L6.0532 10.1734L7.76696 11.8872L11.8727 7.78142L13.1604 9.06919L7.76696 14.4626L4.76553 11.4611Z" fill="black" fill-opacity="0.54"/>
</svg>
