<svg width="18" height="18" viewBox="0 0 18 18" fill="none" xmlns="http://www.w3.org/2000/svg">
<path d="M17.9944 14.4841L16.974 6.62778C16.9258 6.25671 16.5847 5.994 16.2135 6.04221L15.8376 6.09096C15.6579 6.1143 15.4979 6.20631 15.3873 6.34996C15.2766 6.49361 15.2286 6.67172 15.2519 6.85149L15.2718 7.00433L14.7739 7.25592C14.5269 5.57034 13.707 4.02141 12.439 2.86084C11.0675 1.60551 9.28743 0.914062 7.42676 0.914062C7.42676 0.914062 7.42676 0.914062 7.42662 0.914062C4.80872 0.914062 2.50282 2.27582 1.17993 4.32806C1.16249 4.34811 1.14807 4.37077 1.13722 4.3959C0.417206 5.53958 0 6.89227 0 8.34082C0 9.97559 0.531326 11.4883 1.42987 12.7163C1.44196 12.7391 1.45679 12.7597 1.4745 12.7775C2.82994 14.5912 4.99356 15.7674 7.42662 15.7674C7.42662 15.7674 7.42662 15.7674 7.42676 15.7674C7.73135 15.7674 8.03801 15.7484 8.34164 15.711L8.41182 16.2037C8.48735 16.7077 8.92255 17.0706 9.41762 17.0706C9.46761 17.0706 9.51828 17.0668 9.56923 17.0592L10.0897 16.981C10.3936 16.9354 10.6054 16.6535 10.5617 16.3526C10.5616 16.3519 10.5614 16.3511 10.5613 16.3504C10.5612 16.3494 10.561 16.3486 10.5609 16.3477C10.5136 16.0329 10.3539 15.8822 10.2373 15.7721C10.1446 15.6846 10.0936 15.6364 10.0734 15.502C10.0578 15.3986 10.0749 15.3384 10.1122 15.2659C10.9668 14.9344 11.7437 14.4531 12.4244 13.8329L16.2646 14.6488L16.2721 14.7077C16.3165 15.0492 16.6091 15.299 16.9448 15.299C16.9737 15.299 17.0031 15.2971 17.0327 15.2934L17.4087 15.2445C17.7797 15.1964 18.0426 14.8553 17.9944 14.4841ZM14.2756 7.50751L13.1478 8.07715H11.1912C11.1741 7.08206 11.0595 6.12062 10.8568 5.23842C11.7283 5.13268 12.5651 4.98656 13.3499 4.80171C13.8419 5.62363 14.1595 6.54332 14.2756 7.50751ZM12.1035 8.60449L11.1753 9.0732C11.1828 8.91747 11.1885 8.76118 11.1912 8.60449H12.1035ZM12.083 3.24976C12.4427 3.57907 12.7636 3.94217 13.0424 4.33205C12.3103 4.4967 11.533 4.6273 10.726 4.72302C10.5682 4.15846 10.3722 3.6329 10.1409 3.15994C9.82974 2.52356 9.46912 2.01311 9.0743 1.6404C10.1878 1.91354 11.2221 2.46176 12.083 3.24976ZM7.69043 1.4653C8.42377 1.59576 9.11755 2.26785 9.66714 3.39162C9.87341 3.81308 10.0497 4.27986 10.1945 4.78098C9.3815 4.86049 8.54201 4.90443 7.69043 4.91199V1.4653ZM7.69043 5.43933C8.58829 5.4315 9.47324 5.38344 10.3295 5.29706C10.5318 6.15605 10.6464 7.0984 10.6639 8.07715H7.69043V5.43933ZM7.69043 8.60449H10.6639C10.6593 8.85388 10.6479 9.10258 10.6308 9.34827L9.88879 9.7229L7.69043 10.0084V8.60449ZM5.77867 1.64081C5.38399 2.01338 5.02364 2.52383 4.71259 3.15994C4.48119 3.6329 4.28535 4.15846 4.12743 4.72302C3.32158 4.62744 2.54539 4.49712 1.81425 4.3326C2.75908 3.01328 4.15709 2.03975 5.77867 1.64081ZM1.50609 4.80226C2.29024 4.98683 3.12616 5.13281 3.99655 5.23842C3.79385 6.12062 3.67932 7.08192 3.66216 8.07715H0.532837C0.578018 6.88362 0.927383 5.76686 1.50609 4.80226ZM0.532837 8.60449H3.66216C3.68262 9.7722 3.83862 10.9012 4.11452 11.9081C3.30222 12.0027 2.52109 12.1326 1.77745 12.2969C1.03752 11.2433 0.58461 9.97435 0.532837 8.60449ZM2.13272 12.7599C2.81497 12.6178 3.52881 12.5046 4.26915 12.4211C4.37256 12.7348 4.48805 13.0343 4.61577 13.316C4.71657 13.5385 4.82533 13.7509 4.93904 13.9474C5.03847 14.1192 5.14366 14.282 5.2516 14.4314C5.41997 14.6643 5.59698 14.8677 5.78087 15.0412C4.33191 14.6853 3.06134 13.8704 2.13272 12.7599ZM7.16309 15.2162C6.51297 15.0999 6.00471 14.5731 5.67911 14.1225C5.58147 13.9874 5.48602 13.8396 5.39539 13.6832C5.29047 13.5018 5.18967 13.305 5.09615 13.0984C4.99109 12.8665 4.89455 12.6218 4.80679 12.3662C5.13872 12.3357 5.47545 12.3109 5.81671 12.2921L5.86862 12.6921C5.91339 13.0369 6.20865 13.2891 6.54758 13.2891C6.57683 13.2891 6.60649 13.2871 6.63629 13.2833L7.05721 13.2286C7.08577 13.2888 7.12106 13.3454 7.16309 13.3974V15.2162ZM6.27827 11.3934C6.30396 11.36 6.34117 11.3386 6.38292 11.3331L6.76236 11.2839L6.94775 12.711L6.56831 12.7603C6.48221 12.7715 6.40269 12.7105 6.39157 12.6243L6.24683 11.5098C6.24147 11.4681 6.25259 11.4267 6.27827 11.3934ZM7.16309 10.1358C7.0605 10.192 6.96959 10.2692 6.89598 10.3646C6.80644 10.4811 6.74959 10.6153 6.72789 10.7566L6.31508 10.8101C6.13353 10.8338 5.97217 10.9266 5.86052 11.0716C5.74887 11.2166 5.70026 11.3964 5.72388 11.5778L5.7486 11.7676C5.37561 11.7886 5.00798 11.8168 4.64598 11.8516C4.36803 10.8699 4.21037 9.75847 4.1895 8.60449H7.16295V10.1358H7.16309ZM7.16309 8.07715H4.1895C4.20694 7.0984 4.32161 6.15605 4.5239 5.29706C5.38014 5.38344 6.26523 5.43137 7.16309 5.43933V8.07715ZM7.16309 4.91199C6.31137 4.90443 5.47188 4.86049 4.65889 4.78098C4.80363 4.28 4.9801 3.81322 5.18623 3.39162C5.73582 2.26785 6.42961 1.59576 7.16309 1.4653V4.91199ZM7.69043 15.2162V13.7063C7.77242 13.7197 7.85687 13.7214 7.9416 13.7103L8.05476 13.6956L8.24194 15.0103C8.06081 15.1139 7.87637 15.1827 7.69043 15.2162ZM10.0399 16.4285C10.0419 16.4423 10.0283 16.4571 10.0114 16.4596L9.49095 16.5377C9.22316 16.578 8.97336 16.3928 8.93353 16.1275L8.57771 13.6277L8.6553 13.6177L9.27603 13.5371C9.26793 13.6096 9.26834 13.691 9.28221 13.783C9.32945 14.0979 9.48917 14.2486 9.60576 14.3587C9.69859 14.4461 9.74968 14.4943 9.76987 14.6288C9.79005 14.7634 9.75531 14.8244 9.69228 14.9352C9.61317 15.0746 9.50468 15.2655 9.55179 15.5803C9.59903 15.8952 9.75888 16.0458 9.87547 16.1558C9.96817 16.2433 10.0193 16.2915 10.0394 16.4261L10.0399 16.4285ZM10.2989 14.6154C10.2971 14.5944 10.2946 14.573 10.2913 14.5507C10.2441 14.2358 10.0844 14.0852 9.96776 13.975C9.87492 13.8875 9.82384 13.8393 9.80365 13.7048C9.78786 13.5987 9.80626 13.5382 9.84554 13.4631L10.3657 13.3955L11.7772 13.6954C11.3236 14.0651 10.8289 14.3729 10.2989 14.6154ZM17.4412 14.6639C17.4165 14.6959 17.3808 14.7165 17.3407 14.7217L16.9648 14.7704C16.882 14.7813 16.8059 14.7226 16.7952 14.6398L16.0825 9.15161C16.0637 9.00728 15.9309 8.90552 15.7871 8.92419C15.6426 8.94287 15.5407 9.07512 15.5595 9.21959L16.1926 14.0944L10.6139 12.9091L10.5842 12.68C10.5654 12.5355 10.4333 12.4338 10.2887 12.4525C10.1444 12.4711 10.0425 12.6035 10.0613 12.7478L10.0811 12.9007L7.87376 13.1873C7.78656 13.1986 7.69991 13.1754 7.63014 13.1217C7.56093 13.0684 7.51657 12.9915 7.50476 12.905V12.9048C7.50449 12.9025 7.50421 12.9001 7.5038 12.8978L7.25139 10.9545L7.24823 10.9299C7.23683 10.8427 7.26018 10.7562 7.31387 10.6864C7.36757 10.6166 7.4453 10.572 7.5325 10.5607L9.73993 10.274L9.90157 11.5182C9.91873 11.6511 10.0322 11.748 10.1626 11.748C10.174 11.748 10.1854 11.7473 10.197 11.7458C10.3413 11.7269 10.4432 11.5947 10.4245 11.4504L10.253 10.1298L15.3439 7.55887L15.4019 8.00574C15.4207 8.15021 15.5532 8.25197 15.6974 8.23329C15.8417 8.21448 15.9436 8.08223 15.9248 7.9379L15.775 6.78365C15.7698 6.74355 15.7805 6.70372 15.8051 6.67172C15.8298 6.63972 15.8655 6.61913 15.9056 6.61404L16.2815 6.56516C16.3643 6.55431 16.4404 6.61308 16.4511 6.69576L17.4714 14.5521C17.4765 14.5922 17.4659 14.6319 17.4412 14.6639Z" fill="black" fill-opacity="0.54"/>
</svg>
