<svg width="101" height="112" viewBox="0 0 101 112" fill="none" xmlns="http://www.w3.org/2000/svg">
<path d="M14.1037 31.4521L17.4317 33.1498C15.3105 37.3498 14.1918 41.9844 14.1635 46.6896H10.4283C10.458 41.3945 11.7161 36.1785 14.1037 31.4521Z" fill="white"/>
<path d="M13.2298 41.1414C12.1984 41.147 11.3576 40.3155 11.352 39.2841C11.3463 38.2527 12.1778 37.4119 13.2092 37.4062H13.2298C14.2612 37.4062 15.0974 38.2424 15.0974 39.2738C15.0974 40.3052 14.2612 41.1414 13.2298 41.1414Z" fill="#428DFF"/>
<path d="M70.1904 9.43488e-05C64.6964 0.00314578 59.3112 1.53225 54.6355 4.41688C51.8441 1.57831 48.0256 -0.01412 44.0445 9.43488e-05C39.7986 -0.00310951 35.7521 1.80175 32.9177 4.96307C30.0832 8.12439 28.7289 12.3431 29.1937 16.5635C28.2662 17.0141 27.3629 17.5127 26.4876 18.0576C25.1742 18.862 23.9124 19.7477 22.7095 20.7095C21.533 21.7044 20.4197 22.7716 19.3759 23.9049C17.2705 26.1593 15.4955 28.7008 14.1037 31.4536C13.864 31.8993 13.8197 32.4245 13.9814 32.904C14.1432 33.3836 14.4965 33.7747 14.9572 33.9841C15.8728 34.4003 16.9542 34.0363 17.4317 33.1512C18.6673 30.7025 20.2458 28.4424 22.1193 26.4392C23.0472 25.4322 24.0364 24.4836 25.0813 23.5986C26.1525 22.7454 27.2751 21.959 28.4429 21.2436C32.936 18.4874 38.0783 16.9687 43.3479 16.8418C38.476 26.6892 39.4311 38.4206 45.8316 47.3504C52.2321 56.2801 63.035 60.953 73.9255 59.5025V67.2324C74.4392 75.8064 77.9415 83.9292 83.8236 90.1884C84.3573 90.7548 84.498 91.5865 84.1803 92.2969C83.8957 92.9687 83.2288 93.3977 82.4995 93.3782H5.59139C4.86209 93.3977 4.19524 92.9687 3.91058 92.2969C3.59758 91.5912 3.73734 90.7666 4.26542 90.2034C10.1499 83.9397 13.6523 75.8114 14.1635 67.2324V46.6892C14.1635 45.6577 13.3274 44.8216 12.2959 44.8216C11.2645 44.8216 10.4284 45.6577 10.4284 46.6892V67.2324C9.88675 74.8701 6.73482 82.0892 1.50143 87.6784C-0.0341658 89.3341 -0.431233 91.7474 0.492942 93.8078C1.37468 95.8333 3.3824 97.135 5.59139 97.1134H27.3466C28.3228 105.597 35.5051 112 44.0445 112C52.584 112 59.7662 105.597 60.7424 97.1134H82.4976C84.7066 97.135 86.7143 95.8333 87.5961 93.8078C88.5202 91.7449 88.1217 89.3295 86.5839 87.6728C81.37 82.0733 78.2222 74.8628 77.6606 67.2324V58.7779C92.2308 55.0265 101.734 41.0211 99.8374 26.0958C97.9405 11.1705 85.2357 -0.0124306 70.1904 9.43488e-05ZM44.0445 108.319C37.5487 108.311 32.0409 103.541 31.1042 97.1134H56.9849C56.0482 103.541 50.5403 108.311 44.0445 108.319ZM32.8391 14.9406C32.8453 8.7546 37.8585 3.7414 44.0445 3.73522C46.7997 3.73055 49.4576 4.75413 51.498 6.60566C49.1747 8.4687 47.1412 10.6665 45.4639 13.1272C44.9895 13.1067 44.5207 13.073 44.0445 13.073C40.2293 13.1125 36.4455 13.7677 32.8391 15.0134C32.8391 14.9892 32.8391 14.9649 32.8391 14.9406ZM70.1904 56.027C55.7504 56.027 44.0445 44.3211 44.0445 29.8811C44.0445 15.4411 55.7504 3.73522 70.1904 3.73522C84.6304 3.73522 96.3363 15.4411 96.3363 29.8811C96.3208 44.3147 84.624 56.0115 70.1904 56.027Z" fill="#428DFF"/>
<path d="M70.1905 7.46973C67.7714 7.46985 65.4714 8.51955 63.8863 10.3469C62.3011 12.1743 61.5868 14.5995 61.9284 16.9943L64.0798 32.045C64.513 35.087 67.1178 37.3472 70.1905 37.3472C73.2632 37.3472 75.868 35.087 76.3012 32.045L78.4526 16.9943C78.7941 14.5995 78.0798 12.1743 76.4947 10.3469C74.9096 8.51955 72.6096 7.46985 70.1905 7.46973ZM74.7548 16.4676L72.6052 31.5221C72.4343 32.7244 71.4049 33.6178 70.1905 33.6178C68.9761 33.6178 67.9467 32.7244 67.7757 31.5221L65.6262 16.4695C65.37 14.683 66.1797 12.9112 67.6981 11.9357C69.2165 10.9601 71.1645 10.9601 72.6829 11.9357C74.2013 12.9112 75.011 14.683 74.7548 16.4695V16.4676Z" fill="#428DFF"/>
<path d="M70.1912 41.0859C67.0969 41.0859 64.5885 43.5943 64.5885 46.6886C64.5885 49.7829 67.0969 52.2913 70.1912 52.2913C73.2855 52.2913 75.7939 49.7829 75.7939 46.6886C75.7939 43.5943 73.2855 41.0859 70.1912 41.0859ZM70.1912 48.5562C69.1598 48.5562 68.3236 47.7201 68.3236 46.6886C68.3236 45.6572 69.1598 44.8211 70.1912 44.8211C71.2226 44.8211 72.0588 45.6572 72.0588 46.6886C72.0588 47.7201 71.2226 48.5562 70.1912 48.5562Z" fill="#428DFF"/>
</svg>
