<svg width="18" height="18" viewBox="0 0 18 18" fill="none" xmlns="http://www.w3.org/2000/svg">
<g clip-path="url(#clip0)">
<path d="M14.9849 9.70215C14.6884 9.70215 14.4481 9.9425 14.4481 10.239V15.6866H3.55265V10.239C3.55265 9.9425 3.31237 9.70215 3.01583 9.70215C2.71929 9.70215 2.479 9.9425 2.479 10.239V16.2234C2.479 16.5199 2.71929 16.7602 3.01583 16.7602H14.9849C15.2815 16.7602 15.5218 16.5199 15.5218 16.2234V10.239C15.5218 9.9425 15.2814 9.70215 14.9849 9.70215Z" fill="black" fill-opacity="0.54"/>
<path d="M17.8427 9.85942L9.37902 1.39671C9.16944 1.18706 8.82952 1.18713 8.61987 1.39671L0.157236 9.85942C-0.0524119 10.0691 -0.0524119 10.409 0.157236 10.6186C0.262095 10.7234 0.399522 10.7758 0.536878 10.7758C0.674305 10.7758 0.81166 10.7234 0.91652 10.6186L8.99959 2.53542L17.0837 10.6186C17.2932 10.8282 17.6332 10.8281 17.8429 10.6185C18.0524 10.4089 18.0524 10.069 17.8427 9.85942Z" fill="black" fill-opacity="0.54"/>
</g>
<defs>
<clipPath id="clip0">
<rect width="18" height="18" fill="white"/>
</clipPath>
</defs>
</svg>
