<svg width="26" height="26" viewBox="0 0 26 26" fill="none" xmlns="http://www.w3.org/2000/svg">
<path d="M13 0C5.78519 0 0 5.85 0 13C0 20.15 5.78519 26 13 26C20.2148 26 26 20.15 26 13C26 5.85 20.1501 0 13 0ZM13 23.4C7.28013 23.4 2.59975 18.7198 2.59975 13C2.59975 7.28013 7.28019 2.6 13 2.6C18.7198 2.6 23.4002 7.28013 23.4002 13C23.4002 18.7199 18.7199 23.4 13 23.4ZM17.55 11.7C18.6552 11.7 19.5001 10.8551 19.5001 9.75C19.5001 8.64487 18.6551 7.8 17.55 7.8C16.4449 7.8 15.6 8.64487 15.6 9.75C15.6 10.8551 16.4449 11.7 17.55 11.7ZM8.45 11.7C9.55512 11.7 10.4 10.8551 10.4 9.75C10.4 8.64487 9.55506 7.8 8.45 7.8C7.34481 7.8 6.49994 8.64487 6.49994 9.75C6.49994 10.8551 7.34487 11.7 8.45 11.7ZM13 20.15C16.0552 20.15 18.5898 18.2647 19.6301 15.5999H6.36994C7.41025 18.2647 9.94481 20.15 13 20.15Z" fill="white"/>
</svg>
