<svg width="88" height="88" viewBox="0 0 88 88" fill="none" xmlns="http://www.w3.org/2000/svg">
<g clip-path="url(#clip0)">
<path d="M44 88C68.3005 88 88 68.3005 88 44C88 19.6995 68.3005 0 44 0C19.6995 0 0 19.6995 0 44C0 68.3005 19.6995 88 44 88Z" fill="#32BA7C"/>
<path d="M32.7573 63.8486L55.3819 86.4732C74.1201 81.4763 88.0002 64.4038 88.0002 44C88.0002 43.5836 88.0002 43.1672 88.0002 42.7508L70.2337 26.3722L32.7573 63.8486Z" fill="#0AA06E"/>
<path d="M45.1103 53.8549C47.0535 55.7981 47.0535 59.1294 45.1103 61.0726L41.0851 65.0978C39.1419 67.041 35.8106 67.041 33.8674 65.0978L16.2396 47.3313C14.2964 45.388 14.2964 42.0568 16.2396 40.1136L20.2649 36.0883C22.2081 34.1451 25.5393 34.1451 27.4825 36.0883L45.1103 53.8549Z" fill="white"/>
<path d="M60.5171 23.1799C62.4603 21.2366 65.7916 21.2366 67.7348 23.1799L71.76 27.2051C73.7032 29.1483 73.7032 32.4795 71.76 34.4228L41.2238 64.8202C39.2805 66.7635 35.9493 66.7635 34.0061 64.8202L29.9809 60.795C28.0376 58.8518 28.0376 55.5205 29.9809 53.5773L60.5171 23.1799Z" fill="white"/>
</g>
<defs>
<clipPath id="clip0">
<rect width="88" height="88" fill="white"/>
</clipPath>
</defs>
</svg>
