<svg width="14" height="11" viewBox="0 0 14 11" fill="none" xmlns="http://www.w3.org/2000/svg">
<path d="M9.66683 9.33369V10.667H0.333496V9.33369C0.333496 9.33369 0.333496 6.66703 5.00016 6.66703C9.66683 6.66703 9.66683 9.33369 9.66683 9.33369ZM7.3335 3.00036C7.3335 2.53887 7.19665 2.08774 6.94026 1.70403C6.68387 1.32032 6.31945 1.02125 5.89309 0.844642C5.46673 0.668037 4.99757 0.62183 4.54495 0.711862C4.09233 0.801894 3.67657 1.02412 3.35025 1.35044C3.02392 1.67677 2.8017 2.09253 2.71166 2.54515C2.62163 2.99777 2.66784 3.46693 2.84444 3.89329C3.02105 4.31965 3.32012 4.68407 3.70383 4.94046C4.08755 5.19685 4.53867 5.33369 5.00016 5.33369C5.619 5.33369 6.21249 5.08786 6.65008 4.65028C7.08766 4.21269 7.3335 3.6192 7.3335 3.00036ZM9.62683 6.66703C10.0367 6.98419 10.372 7.38732 10.6093 7.84803C10.8465 8.30875 10.98 8.81586 11.0002 9.33369V10.667H13.6668V9.33369C13.6668 9.33369 13.6668 6.91369 9.62683 6.66703ZM9.00016 0.667027C8.54129 0.664472 8.09251 0.801664 7.7135 1.06036C8.11846 1.62619 8.3362 2.30455 8.3362 3.00036C8.3362 3.69617 8.11846 4.37454 7.7135 4.94036C8.09251 5.19906 8.54129 5.33625 9.00016 5.33369C9.619 5.33369 10.2125 5.08786 10.6501 4.65028C11.0877 4.21269 11.3335 3.6192 11.3335 3.00036C11.3335 2.38152 11.0877 1.78803 10.6501 1.35044C10.2125 0.91286 9.619 0.667027 9.00016 0.667027Z" fill="#768FFF"/>
</svg>
