<svg width="24" height="24" viewBox="0 0 24 24" fill="none" xmlns="http://www.w3.org/2000/svg">
<path d="M1.69542 19.4539C1.86731 19.5476 5.95233 21.7497 10.125 21.7497C11.1737 21.7452 12.2193 21.6348 13.2457 21.4201L14.3333 22.5076C14.3681 22.5424 14.4094 22.57 14.4549 22.5889C14.5004 22.6077 14.5492 22.6174 14.5984 22.6174C14.6477 22.6174 14.6965 22.6077 14.742 22.5889C14.7875 22.57 14.8288 22.5424 14.8636 22.5076L15.5935 21.7777C15.6454 21.8005 15.6976 21.8222 15.7501 21.8429V22.8747C15.7501 22.9741 15.7896 23.0695 15.8599 23.1398C15.9303 23.2102 16.0256 23.2497 16.1251 23.2497H18.3751C18.4746 23.2497 18.5699 23.2102 18.6403 23.1398C18.7106 23.0695 18.7501 22.9741 18.7501 22.8747V21.8428C18.8026 21.8222 18.8548 21.8005 18.9067 21.7776L19.6365 22.5075C19.6714 22.5423 19.7127 22.57 19.7582 22.5888C19.8037 22.6077 19.8525 22.6174 19.9017 22.6174C19.951 22.6174 19.9998 22.6077 20.0453 22.5888C20.0908 22.57 20.1321 22.5423 20.1669 22.5075L21.7579 20.9165C21.7927 20.8817 21.8204 20.8403 21.8392 20.7948C21.8581 20.7493 21.8678 20.7006 21.8678 20.6513C21.8678 20.6021 21.8581 20.5533 21.8392 20.5078C21.8204 20.4623 21.7927 20.421 21.7579 20.3861L21.0281 19.6563C21.0509 19.6044 21.0726 19.5522 21.0932 19.4997H22.125C22.2245 19.4997 22.3198 19.4602 22.3902 19.3898C22.4605 19.3195 22.5 19.2241 22.5 19.1247V16.8747C22.5 16.7752 22.4605 16.6798 22.3902 16.6095C22.3198 16.5392 22.2245 16.4997 22.125 16.4997H21.0931C21.0725 16.4472 21.0508 16.395 21.0279 16.3431L21.7578 15.6132C21.7926 15.5784 21.8202 15.5371 21.8391 15.4916C21.8579 15.4461 21.8676 15.3973 21.8676 15.3481C21.8676 15.2988 21.8579 15.25 21.8391 15.2045C21.8202 15.159 21.7926 15.1177 21.7578 15.0829L20.1668 13.4919C20.132 13.457 20.0906 13.4294 20.0451 13.4105C19.9996 13.3917 19.9509 13.382 19.9016 13.382C19.8523 13.382 19.8036 13.3917 19.7581 13.4105C19.7126 13.4294 19.6712 13.457 19.6364 13.4919L18.9066 14.2216C18.8547 14.1987 18.8025 14.177 18.75 14.1564V13.1247C18.75 13.0252 18.7105 12.9298 18.6402 12.8595C18.5698 12.7892 18.4745 12.7497 18.375 12.7497H16.9453C15.7544 10.9726 14.0779 9.76215 12.1644 9.2604C13.0658 8.80213 13.7866 8.05362 14.2106 7.13556C14.6345 6.21751 14.7369 5.18342 14.5011 4.20007C14.2654 3.21672 13.7054 2.34142 12.9113 1.71532C12.1172 1.08922 11.1354 0.748826 10.1242 0.749024C9.11302 0.749221 8.13135 1.09 7.33752 1.71641C6.5437 2.34281 5.98399 3.21834 5.74866 4.20178C5.51333 5.18523 5.6161 6.21927 6.04039 7.13716C6.46468 8.05505 7.18576 8.80328 8.08734 9.26119C6.53297 9.66901 5.12695 10.5459 4.0088 11.8286C2.39095 13.6844 1.5 16.2755 1.5 19.1247C1.5 19.192 1.51815 19.2582 1.55254 19.3161C1.58692 19.374 1.63628 19.4216 1.69542 19.4539ZM16.5 14.4216V13.4997H18V14.4216C18 14.5014 18.0254 14.5791 18.0727 14.6435C18.1199 14.7078 18.1864 14.7554 18.2625 14.7794C18.4513 14.839 18.6346 14.9153 18.81 15.0072C18.8808 15.0442 18.9615 15.0576 19.0404 15.0455C19.1194 15.0334 19.1924 14.9965 19.2488 14.94L19.9016 14.2872L20.9625 15.3481L20.3099 16.0006C20.2534 16.0571 20.2164 16.1301 20.2044 16.2091C20.1923 16.288 20.2057 16.3687 20.2427 16.4395C20.3346 16.615 20.4107 16.7983 20.4703 16.9872C20.4943 17.0633 20.5419 17.1298 20.6062 17.177C20.6706 17.2242 20.7483 17.2497 20.8281 17.2497H21.75V18.7497H20.8281C20.7483 18.7497 20.6705 18.7751 20.6062 18.8223C20.5418 18.8695 20.4942 18.936 20.4703 19.0122C20.4106 19.2011 20.3344 19.3843 20.2425 19.5597C20.2055 19.6305 20.1921 19.7112 20.2042 19.7902C20.2162 19.8691 20.2532 19.9421 20.3097 19.9986L20.9625 20.6513L19.9016 21.7122L19.249 21.0595C19.1926 21.0031 19.1196 20.9661 19.0406 20.954C18.9617 20.942 18.881 20.9554 18.8102 20.9924C18.6347 21.0843 18.4515 21.1605 18.2627 21.2202C18.1866 21.2441 18.1201 21.2917 18.0728 21.3561C18.0256 21.4204 18.0002 21.4981 18.0002 21.5779V22.4997H16.5V21.5777C16.5 21.4979 16.4746 21.4202 16.4273 21.3559C16.3801 21.2915 16.3136 21.2439 16.2375 21.22C16.0487 21.1603 15.8654 21.0841 15.69 20.9922C15.6192 20.9552 15.5385 20.9418 15.4596 20.9538C15.3806 20.9659 15.3076 21.0029 15.2512 21.0594L14.5984 21.7122L13.5375 20.6513L14.1901 19.9987C14.2466 19.9422 14.2836 19.8692 14.2956 19.7903C14.3077 19.7114 14.2943 19.6306 14.2573 19.5599C14.1654 19.3844 14.0893 19.2011 14.0297 19.0122C14.0057 18.936 13.9581 18.8695 13.8938 18.8223C13.8294 18.7751 13.7517 18.7497 13.6719 18.7497H12.75V17.2497H13.6719C13.7517 17.2497 13.8295 17.2242 13.8938 17.177C13.9582 17.1298 14.0058 17.0633 14.0297 16.9872C14.0894 16.7983 14.1656 16.6151 14.2575 16.4396C14.2945 16.3689 14.3079 16.2881 14.2958 16.2092C14.2838 16.1303 14.2468 16.0573 14.1903 16.0008L13.5375 15.3481L14.5984 14.2872L15.251 14.9398C15.3074 14.9963 15.3804 15.0332 15.4594 15.0453C15.5383 15.0574 15.619 15.044 15.6898 15.007C15.8653 14.9151 16.0485 14.8389 16.2373 14.7792C16.3134 14.7553 16.38 14.7077 16.4272 14.6434C16.4745 14.5791 16.5 14.5014 16.5 14.4216ZM6.375 5.24968C6.375 4.508 6.59493 3.78298 7.00699 3.16629C7.41904 2.54961 8.00471 2.06896 8.68994 1.78513C9.37516 1.5013 10.1292 1.42704 10.8566 1.57173C11.584 1.71643 12.2522 2.07358 12.7767 2.59803C13.3011 3.12248 13.6583 3.79066 13.8029 4.51809C13.9476 5.24552 13.8734 5.99952 13.5895 6.68474C13.3057 7.36997 12.8251 7.95563 12.2084 8.36769C11.5917 8.77975 10.8667 8.99968 10.125 8.99968C9.13078 8.99855 8.17761 8.6031 7.4746 7.90008C6.77158 7.19707 6.37613 6.2439 6.375 5.24968ZM4.57402 12.3215C6.01978 10.663 7.99116 9.74968 10.125 9.74968C12.4572 9.74968 14.5761 10.839 16.033 12.7615C15.9522 12.7819 15.8805 12.8288 15.8292 12.8945C15.778 12.9603 15.7501 13.0413 15.75 13.1247V14.1565C15.6975 14.1772 15.6453 14.1989 15.5934 14.2217L14.8635 13.4919C14.8287 13.457 14.7874 13.4294 14.7419 13.4105C14.6964 13.3917 14.6476 13.382 14.5984 13.382C14.5491 13.382 14.5003 13.3917 14.4548 13.4105C14.4093 13.4294 14.368 13.457 14.3332 13.4919L12.7422 15.0829C12.7073 15.1177 12.6797 15.159 12.6609 15.2045C12.642 15.25 12.6323 15.2988 12.6323 15.3481C12.6323 15.3973 12.642 15.4461 12.6609 15.4916C12.6797 15.5371 12.7073 15.5784 12.7422 15.6132L13.472 16.3431C13.4492 16.395 13.4275 16.4472 13.4069 16.4997H12.375C12.2755 16.4997 12.1802 16.5392 12.1098 16.6095C12.0395 16.6798 12 16.7752 12 16.8747V19.1247C12 19.2241 12.0395 19.3195 12.1098 19.3898C12.1802 19.4602 12.2755 19.4997 12.375 19.4997H13.4069C13.4275 19.5522 13.4492 19.6044 13.4721 19.6563L12.7422 20.3861C12.6928 20.4353 12.6582 20.4973 12.6422 20.5651C12.6263 20.6329 12.6297 20.7039 12.652 20.7699C11.818 20.9199 10.9724 20.9968 10.125 20.9997C6.64744 20.9997 3.11283 19.3317 2.25202 18.8976C2.29753 16.3199 3.11798 13.9919 4.57402 12.3215ZM17.25 19.4997C17.5467 19.4997 17.8367 19.4117 18.0834 19.2469C18.33 19.0821 18.5223 18.8478 18.6358 18.5737C18.7494 18.2996 18.7791 17.998 18.7212 17.707C18.6633 17.4161 18.5204 17.1488 18.3107 16.939C18.1009 16.7292 17.8336 16.5864 17.5426 16.5285C17.2517 16.4706 16.9501 16.5003 16.676 16.6139C16.4019 16.7274 16.1676 16.9197 16.0028 17.1663C15.838 17.413 15.75 17.703 15.75 17.9997C15.7504 18.3974 15.9086 18.7786 16.1898 19.0598C16.471 19.3411 16.8523 19.4992 17.25 19.4997ZM17.25 17.2497C17.3983 17.2497 17.5433 17.2937 17.6667 17.3761C17.79 17.4585 17.8861 17.5756 17.9429 17.7127C17.9997 17.8497 18.0145 18.0005 17.9856 18.146C17.9566 18.2915 17.8852 18.4251 17.7803 18.53C17.6754 18.6349 17.5418 18.7063 17.3963 18.7353C17.2508 18.7642 17.1 18.7494 16.963 18.6926C16.8259 18.6358 16.7088 18.5397 16.6264 18.4164C16.544 18.293 16.5 18.148 16.5 17.9997C16.5002 17.8008 16.5793 17.6102 16.7199 17.4696C16.8605 17.329 17.0512 17.2499 17.25 17.2497Z" fill="url(#paint0_linear)"/>
<defs>
<linearGradient id="paint0_linear" x1="12" y1="23.2497" x2="12" y2="0.749681" gradientUnits="userSpaceOnUse">
<stop stop-color="#12C2E9"/>
<stop offset="0.5" stop-color="#C471ED"/>
<stop offset="1" stop-color="#F64F59"/>
</linearGradient>
</defs>
</svg>
