<svg width="24" height="24" viewBox="0 0 24 24" fill="none" xmlns="http://www.w3.org/2000/svg">
<path d="M22.125 1.125H1.875C1.57674 1.12535 1.29079 1.24399 1.07989 1.45489C0.868985 1.66579 0.750347 1.95174 0.75 2.25V21.75C0.750347 22.0483 0.868985 22.3342 1.07989 22.5451C1.29079 22.756 1.57674 22.8747 1.875 22.875H22.125C22.4233 22.8747 22.7092 22.756 22.9201 22.5451C23.131 22.3342 23.2497 22.0483 23.25 21.75V2.25C23.2497 1.95174 23.131 1.66579 22.9201 1.45489C22.7092 1.24399 22.4233 1.12535 22.125 1.125ZM1.875 1.875H22.125C22.2244 1.87511 22.3197 1.91466 22.39 1.98496C22.4603 2.05526 22.4999 2.15058 22.5 2.25V4.125H1.5V2.25C1.50011 2.15058 1.53966 2.05526 1.60996 1.98496C1.68026 1.91466 1.77558 1.87511 1.875 1.875ZM22.125 22.125H1.875C1.77558 22.1249 1.68026 22.0853 1.60996 22.015C1.53966 21.9447 1.50011 21.8494 1.5 21.75V4.875H22.5V21.75C22.4999 21.8494 22.4603 21.9447 22.39 22.015C22.3197 22.0853 22.2244 22.1249 22.125 22.125ZM5.25 3C5.25 2.92583 5.27199 2.85333 5.3132 2.79166C5.3544 2.72999 5.41297 2.68193 5.48149 2.65355C5.55002 2.62516 5.62542 2.61774 5.69816 2.63221C5.7709 2.64667 5.83772 2.68239 5.89016 2.73484C5.94261 2.78728 5.97832 2.8541 5.99279 2.92684C6.00726 2.99958 5.99984 3.07498 5.97145 3.14351C5.94307 3.21203 5.89501 3.2706 5.83334 3.3118C5.77167 3.35301 5.69917 3.375 5.625 3.375C5.52554 3.375 5.43016 3.33549 5.35984 3.26516C5.28951 3.19484 5.25 3.09946 5.25 3ZM3.75 3C3.75 2.92583 3.77199 2.85333 3.8132 2.79166C3.8544 2.72999 3.91297 2.68193 3.98149 2.65355C4.05002 2.62516 4.12542 2.61774 4.19816 2.63221C4.2709 2.64667 4.33772 2.68239 4.39016 2.73484C4.44261 2.78728 4.47833 2.8541 4.49279 2.92684C4.50726 2.99958 4.49984 3.07498 4.47145 3.14351C4.44307 3.21203 4.39501 3.2706 4.33334 3.3118C4.27167 3.35301 4.19917 3.375 4.125 3.375C4.02554 3.375 3.93016 3.33549 3.85984 3.26516C3.78951 3.19484 3.75 3.09946 3.75 3ZM2.25 3C2.25 2.92583 2.27199 2.85333 2.3132 2.79166C2.3544 2.72999 2.41297 2.68193 2.48149 2.65355C2.55002 2.62516 2.62542 2.61774 2.69816 2.63221C2.7709 2.64667 2.83772 2.68239 2.89016 2.73484C2.94261 2.78728 2.97833 2.8541 2.99279 2.92684C3.00726 2.99958 2.99984 3.07498 2.97145 3.14351C2.94307 3.21203 2.89501 3.2706 2.83334 3.3118C2.77167 3.35301 2.69917 3.375 2.625 3.375C2.52554 3.375 2.43016 3.33549 2.35984 3.26516C2.28951 3.19484 2.25 3.09946 2.25 3ZM4.5 9.375L5.25 9.75L4.5 10.125V9.375ZM4.5 13.875L5.25 14.25L4.5 14.625V13.875ZM4.5 18.375L5.25 18.75L4.5 19.125V18.375ZM4.875 16.875C4.50416 16.875 4.14165 16.985 3.83331 17.191C3.52496 17.397 3.28464 17.6899 3.14273 18.0325C3.00081 18.3751 2.96368 18.7521 3.03603 19.1158C3.10837 19.4795 3.28695 19.8136 3.54917 20.0758C3.8114 20.338 4.14549 20.5166 4.50921 20.589C4.87292 20.6613 5.24992 20.6242 5.59253 20.4823C5.93514 20.3404 6.22798 20.1 6.43401 19.7917C6.64003 19.4834 6.75 19.1208 6.75 18.75C6.74944 18.2529 6.55172 17.7763 6.20021 17.4248C5.8487 17.0733 5.37211 16.8756 4.875 16.875ZM4.875 19.875C4.6525 19.875 4.43499 19.809 4.24998 19.6854C4.06498 19.5618 3.92078 19.3861 3.83564 19.1805C3.75049 18.975 3.72821 18.7488 3.77162 18.5305C3.81502 18.3123 3.92217 18.1118 4.0795 17.9545C4.23684 17.7972 4.43729 17.69 4.65552 17.6466C4.87375 17.6032 5.09995 17.6255 5.30552 17.7106C5.51109 17.7958 5.68679 17.94 5.8104 18.125C5.93402 18.31 6 18.5275 6 18.75C5.99965 19.0483 5.88101 19.3342 5.67011 19.5451C5.45921 19.756 5.17326 19.8747 4.875 19.875ZM4.875 12.375C4.50416 12.375 4.14165 12.485 3.83331 12.691C3.52496 12.897 3.28464 13.1899 3.14273 13.5325C3.00081 13.8751 2.96368 14.2521 3.03603 14.6158C3.10837 14.9795 3.28695 15.3136 3.54917 15.5758C3.8114 15.838 4.14549 16.0166 4.50921 16.089C4.87292 16.1613 5.24992 16.1242 5.59253 15.9823C5.93514 15.8404 6.22798 15.6 6.43401 15.2917C6.64003 14.9834 6.75 14.6208 6.75 14.25C6.74944 13.7529 6.55172 13.2763 6.20021 12.9248C5.8487 12.5733 5.37211 12.3756 4.875 12.375ZM4.875 15.375C4.6525 15.375 4.43499 15.309 4.24998 15.1854C4.06498 15.0618 3.92078 14.8861 3.83564 14.6805C3.75049 14.475 3.72821 14.2488 3.77162 14.0305C3.81502 13.8123 3.92217 13.6118 4.0795 13.4545C4.23684 13.2972 4.43729 13.19 4.65552 13.1466C4.87375 13.1032 5.09995 13.1255 5.30552 13.2106C5.51109 13.2958 5.68679 13.44 5.8104 13.625C5.93402 13.81 6 14.0275 6 14.25C5.99965 14.5483 5.88101 14.8342 5.67011 15.0451C5.45921 15.256 5.17326 15.3747 4.875 15.375ZM4.875 7.875C4.50416 7.875 4.14165 7.98497 3.83331 8.19099C3.52496 8.39702 3.28464 8.68986 3.14273 9.03247C3.00081 9.37508 2.96368 9.75208 3.03603 10.1158C3.10837 10.4795 3.28695 10.8136 3.54917 11.0758C3.8114 11.338 4.14549 11.5166 4.50921 11.589C4.87292 11.6613 5.24992 11.6242 5.59253 11.4823C5.93514 11.3404 6.22798 11.1 6.43401 10.7917C6.64003 10.4834 6.75 10.1208 6.75 9.75C6.74944 9.25289 6.55172 8.7763 6.20021 8.42479C5.8487 8.07328 5.37211 7.87556 4.875 7.875ZM4.875 10.875C4.6525 10.875 4.43499 10.809 4.24998 10.6854C4.06498 10.5618 3.92078 10.3861 3.83564 10.1805C3.75049 9.97495 3.72821 9.74875 3.77162 9.53052C3.81502 9.31229 3.92217 9.11184 4.0795 8.9545C4.23684 8.79717 4.43729 8.69002 4.65552 8.64662C4.87375 8.60321 5.09995 8.62549 5.30552 8.71064C5.51109 8.79578 5.68679 8.93998 5.8104 9.12498C5.93402 9.30999 6 9.5275 6 9.75C5.99965 10.0483 5.88101 10.3342 5.67011 10.5451C5.45921 10.756 5.17326 10.8747 4.875 10.875ZM7.875 8.625H8.625C8.72446 8.625 8.81984 8.66451 8.89017 8.73483C8.96049 8.80516 9 8.90054 9 9C9 9.09946 8.96049 9.19484 8.89017 9.26517C8.81984 9.33549 8.72446 9.375 8.625 9.375H7.875C7.77554 9.375 7.68016 9.33549 7.60983 9.26517C7.53951 9.19484 7.5 9.09946 7.5 9C7.5 8.90054 7.53951 8.80516 7.60983 8.73483C7.68016 8.66451 7.77554 8.625 7.875 8.625ZM9.75 9C9.75 8.90054 9.78951 8.80516 9.85983 8.73483C9.93016 8.66451 10.0255 8.625 10.125 8.625H13.125C13.2245 8.625 13.3198 8.66451 13.3902 8.73483C13.4605 8.80516 13.5 8.90054 13.5 9C13.5 9.09946 13.4605 9.19484 13.3902 9.26517C13.3198 9.33549 13.2245 9.375 13.125 9.375H10.125C10.0255 9.375 9.93016 9.33549 9.85983 9.26517C9.78951 9.19484 9.75 9.09946 9.75 9ZM18 10.5C18 10.5995 17.9605 10.6948 17.8902 10.7652C17.8198 10.8355 17.7245 10.875 17.625 10.875H7.875C7.77554 10.875 7.68016 10.8355 7.60983 10.7652C7.53951 10.6948 7.5 10.5995 7.5 10.5C7.5 10.4005 7.53951 10.3052 7.60983 10.2348C7.68016 10.1645 7.77554 10.125 7.875 10.125H17.625C17.7245 10.125 17.8198 10.1645 17.8902 10.2348C17.9605 10.3052 18 10.4005 18 10.5ZM21 10.5C21 10.5995 20.9605 10.6948 20.8902 10.7652C20.8198 10.8355 20.7245 10.875 20.625 10.875H19.875C19.7755 10.875 19.6802 10.8355 19.6098 10.7652C19.5395 10.6948 19.5 10.5995 19.5 10.5C19.5 10.4005 19.5395 10.3052 19.6098 10.2348C19.6802 10.1645 19.7755 10.125 19.875 10.125H20.625C20.7245 10.125 20.8198 10.1645 20.8902 10.2348C20.9605 10.3052 21 10.4005 21 10.5ZM7.5 13.5C7.5 13.4005 7.53951 13.3052 7.60983 13.2348C7.68016 13.1645 7.77554 13.125 7.875 13.125H8.625C8.72446 13.125 8.81984 13.1645 8.89017 13.2348C8.96049 13.3052 9 13.4005 9 13.5C9 13.5995 8.96049 13.6948 8.89017 13.7652C8.81984 13.8355 8.72446 13.875 8.625 13.875H7.875C7.77554 13.875 7.68016 13.8355 7.60983 13.7652C7.53951 13.6948 7.5 13.5995 7.5 13.5ZM10.125 13.875C10.0255 13.875 9.93016 13.8355 9.85983 13.7652C9.78951 13.6948 9.75 13.5995 9.75 13.5C9.75 13.4005 9.78951 13.3052 9.85983 13.2348C9.93016 13.1645 10.0255 13.125 10.125 13.125H13.125C13.2245 13.125 13.3198 13.1645 13.3902 13.2348C13.4605 13.3052 13.5 13.4005 13.5 13.5C13.5 13.5995 13.4605 13.6948 13.3902 13.7652C13.3198 13.8355 13.2245 13.875 13.125 13.875H10.125ZM18 15C18 15.0995 17.9605 15.1948 17.8902 15.2652C17.8198 15.3355 17.7245 15.375 17.625 15.375H7.875C7.77554 15.375 7.68016 15.3355 7.60983 15.2652C7.53951 15.1948 7.5 15.0995 7.5 15C7.5 14.9005 7.53951 14.8052 7.60983 14.7348C7.68016 14.6645 7.77554 14.625 7.875 14.625H17.625C17.7245 14.625 17.8198 14.6645 17.8902 14.7348C17.9605 14.8052 18 14.9005 18 15ZM21 15C21 15.0995 20.9605 15.1948 20.8902 15.2652C20.8198 15.3355 20.7245 15.375 20.625 15.375H19.875C19.7755 15.375 19.6802 15.3355 19.6098 15.2652C19.5395 15.1948 19.5 15.0995 19.5 15C19.5 14.9005 19.5395 14.8052 19.6098 14.7348C19.6802 14.6645 19.7755 14.625 19.875 14.625H20.625C20.7245 14.625 20.8198 14.6645 20.8902 14.7348C20.9605 14.8052 21 14.9005 21 15ZM7.5 18C7.5 17.9005 7.53951 17.8052 7.60983 17.7348C7.68016 17.6645 7.77554 17.625 7.875 17.625H8.625C8.72446 17.625 8.81984 17.6645 8.89017 17.7348C8.96049 17.8052 9 17.9005 9 18C9 18.0995 8.96049 18.1948 8.89017 18.2652C8.81984 18.3355 8.72446 18.375 8.625 18.375H7.875C7.77554 18.375 7.68016 18.3355 7.60983 18.2652C7.53951 18.1948 7.5 18.0995 7.5 18ZM10.125 18.375C10.0255 18.375 9.93016 18.3355 9.85983 18.2652C9.78951 18.1948 9.75 18.0995 9.75 18C9.75 17.9005 9.78951 17.8052 9.85983 17.7348C9.93016 17.6645 10.0255 17.625 10.125 17.625H13.125C13.2245 17.625 13.3198 17.6645 13.3902 17.7348C13.4605 17.8052 13.5 17.9005 13.5 18C13.5 18.0995 13.4605 18.1948 13.3902 18.2652C13.3198 18.3355 13.2245 18.375 13.125 18.375H10.125ZM18 19.5C18 19.5995 17.9605 19.6948 17.8902 19.7652C17.8198 19.8355 17.7245 19.875 17.625 19.875H7.875C7.77554 19.875 7.68016 19.8355 7.60983 19.7652C7.53951 19.6948 7.5 19.5995 7.5 19.5C7.5 19.4005 7.53951 19.3052 7.60983 19.2348C7.68016 19.1645 7.77554 19.125 7.875 19.125H17.625C17.7245 19.125 17.8198 19.1645 17.8902 19.2348C17.9605 19.3052 18 19.4005 18 19.5ZM21 19.5C21 19.5995 20.9605 19.6948 20.8902 19.7652C20.8198 19.8355 20.7245 19.875 20.625 19.875H19.875C19.7755 19.875 19.6802 19.8355 19.6098 19.7652C19.5395 19.6948 19.5 19.5995 19.5 19.5C19.5 19.4005 19.5395 19.3052 19.6098 19.2348C19.6802 19.1645 19.7755 19.125 19.875 19.125H20.625C20.7245 19.125 20.8198 19.1645 20.8902 19.2348C20.9605 19.3052 21 19.4005 21 19.5ZM3 6.75C3 6.65054 3.03951 6.55516 3.10984 6.48483C3.18016 6.41451 3.27554 6.375 3.375 6.375H7.875C7.97446 6.375 8.06984 6.41451 8.14017 6.48483C8.21049 6.55516 8.25 6.65054 8.25 6.75C8.25 6.84946 8.21049 6.94484 8.14017 7.01517C8.06984 7.08549 7.97446 7.125 7.875 7.125H3.375C3.27554 7.125 3.18016 7.08549 3.10984 7.01517C3.03951 6.94484 3 6.84946 3 6.75ZM21 7.125C21 7.19917 20.978 7.27167 20.9368 7.33334C20.8956 7.39501 20.837 7.44307 20.7685 7.47145C20.7 7.49984 20.6246 7.50726 20.5518 7.49279C20.4791 7.47832 20.4123 7.44261 20.3598 7.39017C20.3074 7.33772 20.2717 7.2709 20.2572 7.19816C20.2427 7.12542 20.2502 7.05002 20.2785 6.98149C20.3069 6.91297 20.355 6.8544 20.4167 6.8132C20.4783 6.77199 20.5508 6.75 20.625 6.75C20.7245 6.75 20.8198 6.78951 20.8902 6.85983C20.9605 6.93016 21 7.02554 21 7.125ZM19.5 7.125C19.5 7.19917 19.478 7.27167 19.4368 7.33334C19.3956 7.39501 19.337 7.44307 19.2685 7.47145C19.2 7.49984 19.1246 7.50726 19.0518 7.49279C18.9791 7.47832 18.9123 7.44261 18.8598 7.39017C18.8074 7.33772 18.7717 7.2709 18.7572 7.19816C18.7427 7.12542 18.7502 7.05002 18.7785 6.98149C18.8069 6.91297 18.855 6.8544 18.9167 6.8132C18.9783 6.77199 19.0508 6.75 19.125 6.75C19.2245 6.75 19.3198 6.78951 19.3902 6.85983C19.4605 6.93016 19.5 7.02554 19.5 7.125Z" fill="url(#paint0_linear)"/>
<defs>
<linearGradient id="paint0_linear" x1="12" y1="22.875" x2="12" y2="1.125" gradientUnits="userSpaceOnUse">
<stop stop-color="#12C2E9"/>
<stop offset="0.5" stop-color="#C471ED"/>
<stop offset="1" stop-color="#F64F59"/>
</linearGradient>
</defs>
</svg>
