<svg width="18" height="24" viewBox="0 0 18 24" fill="none" xmlns="http://www.w3.org/2000/svg">
<path d="M0.195422 20.9548C0.367266 21.0485 4.45664 23.2506 9 23.2506C13.9222 23.2506 17.6612 21.0412 17.8179 20.9471C17.8735 20.9138 17.9194 20.8667 17.9513 20.8103C17.9832 20.754 18 20.6903 18 20.6256C18 17.5978 17.0715 14.8271 15.3857 12.8236C14.2065 11.4221 12.7268 10.4667 11.0948 10.027C12.0938 9.55156 12.9014 8.7505 13.3849 7.75541C13.8683 6.76031 13.999 5.63036 13.7553 4.55121C13.5116 3.47205 12.9081 2.50787 12.0439 1.81709C11.1798 1.1263 10.1063 0.75 9 0.75C7.89367 0.75 6.82025 1.1263 5.95608 1.81709C5.09192 2.50787 4.48842 3.47205 4.24473 4.55121C4.00104 5.63036 4.13167 6.76031 4.61514 7.75541C5.09861 8.7505 5.90618 9.55156 6.90516 10.027C5.2732 10.4667 3.79355 11.4222 2.61427 12.8236C0.928453 14.8271 0 17.5978 0 20.6256C5.45561e-07 20.6929 0.0181485 20.7591 0.0525362 20.817C0.086924 20.8749 0.136282 20.9225 0.195422 20.9548ZM4.875 5.62559C4.875 4.80974 5.11693 4.01221 5.57019 3.33386C6.02345 2.65551 6.66769 2.12679 7.42143 1.81458C8.17518 1.50237 9.00458 1.42068 9.80475 1.57985C10.6049 1.73901 11.3399 2.13188 11.9168 2.70877C12.4937 3.28566 12.8866 4.02067 13.0457 4.82084C13.2049 5.62101 13.1232 6.45041 12.811 7.20415C12.4988 7.9579 11.9701 8.60214 11.2917 9.0554C10.6134 9.50866 9.81585 9.75058 9 9.75058C7.90636 9.74934 6.85787 9.31435 6.08455 8.54103C5.31124 7.76771 4.87624 6.71922 4.875 5.62559ZM3.18811 13.3065C4.71094 11.4971 6.77475 10.5006 9 10.5006C11.2253 10.5006 13.2891 11.4971 14.8119 13.3065C16.3438 15.127 17.2051 17.6415 17.2483 20.4068C16.4459 20.8412 13.1113 22.5006 9 22.5006C5.19797 22.5006 1.61719 20.8314 0.751875 20.398C0.796875 17.636 1.65783 15.1251 3.18811 13.3065Z" fill="url(#paint0_linear)"/>
<defs>
<linearGradient id="paint0_linear" x1="9" y1="23.2506" x2="9" y2="0.750585" gradientUnits="userSpaceOnUse">
<stop stop-color="#12C2E9"/>
<stop offset="0.5" stop-color="#C471ED"/>
<stop offset="1" stop-color="#F64F59"/>
</linearGradient>
</defs>
</svg>
