<svg width="28" height="28" viewBox="0 0 28 28" fill="none" xmlns="http://www.w3.org/2000/svg">
<path d="M12.6666 17.9998H15.3333V20.6665H12.6666V17.9998ZM12.6666 7.33317H15.3333V15.3332H12.6666V7.33317ZM14 0.666504C6.62663 0.666504 0.666626 6.6665 0.666626 13.9998C0.666626 17.5361 2.07138 20.9274 4.57187 23.4279C5.80998 24.666 7.27984 25.6482 8.89751 26.3182C10.5152 26.9883 12.249 27.3332 14 27.3332C17.5362 27.3332 20.9276 25.9284 23.4281 23.4279C25.9285 20.9274 27.3333 17.5361 27.3333 13.9998C27.3333 12.2489 26.9884 10.5151 26.3184 8.89739C25.6483 7.27972 24.6662 5.80986 23.4281 4.57175C22.1899 3.33363 20.7201 2.35151 19.1024 1.68144C17.4847 1.01138 15.7509 0.666504 14 0.666504ZM14 24.6665C11.171 24.6665 8.45788 23.5427 6.45749 21.5423C4.4571 19.5419 3.33329 16.8288 3.33329 13.9998C3.33329 11.1709 4.4571 8.45775 6.45749 6.45737C8.45788 4.45698 11.171 3.33317 14 3.33317C16.8289 3.33317 19.542 4.45698 21.5424 6.45737C23.5428 8.45775 24.6666 11.1709 24.6666 13.9998C24.6666 16.8288 23.5428 19.5419 21.5424 21.5423C19.542 23.5427 16.8289 24.6665 14 24.6665Z" fill="white"/>
</svg>
